<svg xmlns="http://www.w3.org/2000/svg" viewBox="0 0 433.15204 90.85437"><defs><style>.cls-1{fill:#1b2646;}.cls-2{fill:#eba108;}</style></defs><g id="Camada_2" data-name="Camada 2"><g id="Camada_1-2" data-name="Camada 1"><path class="cls-1" d="M155.42542,11.18966c0,6.47695-4.95387,10.55389-12.75005,10.55389h-4.03848v6.8731h-9.43081V.63962h13.46929c7.79618,0,12.75005,4.07694,12.75005,10.55m-9.51158,0c0-2.03847-1.23847-3.27693-3.83848-3.27693h-3.43847V14.4666h3.43847c2.6,0,3.83848-1.23847,3.83848-3.27694"/><path class="cls-1" d="M170.48394,21.58162h-2.5577v7.03464h-9.43081V.63923h13.46928c7.79234,0,12.75005,4.07694,12.75005,10.55a9.36765,9.36765,0,0,1-5.27694,8.79235l5.8731,8.63464H175.24165Zm.88077-13.66928h-3.43847v6.55387h3.43847c2.59616,0,3.83847-1.23847,3.83847-3.27694s-1.24231-3.27693-3.83847-3.27693"/><path class="cls-1" d="M187.13939,14.62813c0-8.47311,6.67694-14.627,15.78852-14.627s15.78467,6.15386,15.78467,14.627-6.6731,14.627-15.78467,14.627-15.78852-6.15387-15.78852-14.627m22.06162,0c0-4.3577-2.79617-6.99617-6.2731-6.99617s-6.27695,2.63847-6.27695,6.99617c0,4.35387,2.8,6.99234,6.27695,6.99234s6.2731-2.63847,6.2731-6.99234"/><path class="cls-1" d="M240.6446,13.86774h8.19233V25.69856a22.58571,22.58571,0,0,1-12.18851,3.55386c-9.0308,0-15.627-6.03079-15.627-14.62313,0-8.59619,6.59618-14.627,15.827-14.627,5.51541,0,9.95389,1.91539,12.78852,5.39232L243.6023,10.71a7.9774,7.9774,0,0,0-6.27311-3.07693c-4.1577,0-6.79618,2.67693-6.79618,6.99618,0,4.19617,2.63848,6.99233,6.67311,6.99233a8.75578,8.75578,0,0,0,3.43848-.68077Z"/><path class="cls-1" d="M264.85623,21.58162h-2.55771v7.03464h-9.4308V.63923H266.337c7.79234,0,12.75,4.07694,12.75,10.55a9.36766,9.36766,0,0,1-5.27693,8.79235l5.8731,8.63464H269.61394ZM265.737,7.91234h-3.43848v6.55387H265.737c2.59616,0,3.83847-1.23847,3.83847-3.27694s-1.24231-3.27693-3.83847-3.27693"/><polygon class="cls-1" points="305.893 21.502 305.893 28.617 282.631 28.617 282.631 0.64 305.373 0.64 305.373 7.752 291.904 7.752 291.904 11.029 303.735 11.029 303.735 17.825 291.904 17.825 291.904 21.502 305.893 21.502"/><path class="cls-1" d="M307.76294,26.377l3.03846-6.8731a19.20272,19.20272,0,0,0,9.23081,2.5577c2.67693,0,3.63847-.56154,3.63847-1.51923,0-3.51924-15.46929-.68077-15.46929-11.11159,0-5.19617,4.35771-9.4308,13.027-9.4308a22.2119,22.2119,0,0,1,10.55389,2.43847l-2.83847,6.83464a17.24409,17.24409,0,0,0-7.79234-2.08077c-2.7577,0-3.63848.8-3.63848,1.76154,0,3.35386,15.46929.55769,15.46929,10.86928,0,5.1154-4.3577,9.4308-13.03082,9.4308-4.67309,0-9.39235-1.1577-12.1885-2.87694"/><path class="cls-1" d="M334.01381,26.377l3.03846-6.8731a19.20272,19.20272,0,0,0,9.23081,2.5577c2.67693,0,3.63847-.56154,3.63847-1.51923,0-3.51924-15.46929-.68077-15.46929-11.11159C334.45226,4.23463,338.81,0,347.47924,0a22.2119,22.2119,0,0,1,10.55389,2.43847l-2.83847,6.83464a17.2441,17.2441,0,0,0-7.79235-2.08077c-2.75769,0-3.63847.8-3.63847,1.76154,0,3.35386,15.46929.55769,15.46929,10.86928,0,5.1154-4.35771,9.4308-13.03082,9.4308-4.6731,0-9.39235-1.1577-12.1885-2.87694"/><polygon class="cls-1" points="149.356 58.422 149.356 61.899 129.056 61.899 129.056 33.922 148.795 33.922 148.795 37.399 133.052 37.399 133.052 45.992 147.079 45.992 147.079 49.388 133.052 49.388 133.052 58.422 149.356 58.422"/><path class="cls-1" d="M155.82408,33.92238H167.6126c8.99233,0,15.10775,5.6731,15.10775,13.98852,0,8.31157-6.11542,13.98851-15.10775,13.98851H155.82408Zm11.55007,24.5001c6.91155,0,11.35-4.23848,11.35-10.51158,0-6.27695-4.43848-10.51158-11.35-10.51158h-7.5539V58.42248Z"/><path class="cls-1" d="M188.58615,49.829V33.92123h3.99614V49.66745c0,6.19617,2.83847,8.99234,7.87313,8.99234,5.03847,0,7.91541-2.79617,7.91541-8.99234V33.92123h3.87308V49.829c0,8.11157-4.43464,12.38851-11.827,12.38851-7.35389,0-11.8308-4.27694-11.8308-12.38851"/><path class="cls-1" d="M218.14973,47.91128c0-8.27311,6.3154-14.30774,14.827-14.30774a13.81782,13.81782,0,0,1,10.63466,4.35771l-2.6,2.51539a10.36806,10.36806,0,0,0-7.8731-3.3154c-6.3154,0-10.98851,4.55387-10.98851,10.75,0,6.19234,4.67311,10.75005,10.98851,10.75005a10.3934,10.3934,0,0,0,7.8731-3.35771l2.6,2.51924A13.88594,13.88594,0,0,1,232.93822,62.219c-8.47309,0-14.78849-6.03464-14.78849-14.30775"/><path class="cls-1" d="M266.46259,54.90708H251.59328l-3.07692,6.99234H244.401l12.66928-27.977h3.9577l12.70775,27.977H269.5395Zm-1.4-3.2-6.03464-13.70774-6.03464,13.70774Z"/><path class="cls-1" d="M275.20764,47.91128c0-8.27311,6.3154-14.30774,14.827-14.30774a13.81507,13.81507,0,0,1,10.63081,4.35771l-2.6,2.51539a10.36233,10.36233,0,0,0-7.87309-3.3154c-6.31156,0-10.98852,4.55387-10.98852,10.75,0,6.19234,4.677,10.75005,10.98852,10.75005a10.3876,10.3876,0,0,0,7.87309-3.35771l2.6,2.51924A13.88322,13.88322,0,0,1,289.99613,62.219c-8.47309,0-14.78849-6.03464-14.78849-14.30775"/><rect class="cls-1" x="306.37008" y="33.922" width="3.99618" height="27.97703"/><path class="cls-1" d="M316.48009,47.91128c0-8.19234,6.31541-14.30774,14.90775-14.30774,8.51156,0,14.827,6.0731,14.827,14.30774S339.8994,62.219,331.38784,62.219c-8.59234,0-14.90775-6.11541-14.90775-14.30775m25.73857,0a10.87188,10.87188,0,0,0-21.74239,0,10.87188,10.87188,0,0,0,21.74239,0"/><polygon class="cls-1" points="376.378 33.922 376.378 61.899 373.101 61.899 356.316 41.037 356.316 61.899 352.32 61.899 352.32 33.922 355.597 33.922 372.382 54.784 372.382 33.922 376.378 33.922"/><path class="cls-1" d="M402.5885,54.90708H387.71917l-3.07689,6.99234h-4.1154l12.66927-27.977h3.95768l12.70775,27.977h-4.19619Zm-1.4-3.2-6.03463-13.70774-6.03464,13.70774Z"/><polygon class="cls-1" points="414.01 33.922 418.006 33.922 418.006 58.422 433.152 58.422 433.152 61.899 414.01 61.899 414.01 33.922"/><polygon class="cls-1" points="26.85 86.929 26.85 87.617 19.643 87.617 19.643 77.169 26.628 77.169 26.628 77.857 20.402 77.857 20.402 81.974 25.97 81.974 25.97 82.646 20.402 82.646 20.402 86.929 26.85 86.929"/><path class="cls-1" d="M31.99943,77.16852h4.13476c3.31186,0,5.55124,2.17867,5.55124,5.2241s-2.23938,5.22409-5.55124,5.22409H31.99943Zm4.07406,9.76019c2.95436,0,4.84974-1.88189,4.84974-4.53609,0-2.65758-1.89538-4.5361-4.84974-4.5361H32.76163v9.07219Z"/><path class="cls-1" d="M46.608,83.18247V77.16919h.7622v5.98293c0,2.61373,1.25459,3.8346,3.43326,3.8346s3.41641-1.22087,3.41641-3.8346V77.16919h.75882v6.01328c0,2.98472-1.59522,4.50574-4.19209,4.50574s-4.1786-1.521-4.1786-4.50574"/><path class="cls-1" d="M59.902,82.39194a5.21723,5.21723,0,0,1,5.41633-5.29829,4.99,4.99,0,0,1,3.71656,1.44683l-.47552.49239a4.37928,4.37928,0,0,0-3.21068-1.23773,4.59762,4.59762,0,1,0,0,9.1936,4.39444,4.39444,0,0,0,3.21068-1.25459l.47552.49239a4.98933,4.98933,0,0,1-3.71656,1.4637,5.21724,5.21724,0,0,1-5.41633-5.2983"/><path class="cls-1" d="M80.14071,84.67449H74.08022L72.7548,87.61536h-.82291l4.8059-10.44819H77.5l4.80589,10.44819H81.483Zm-.28329-.64079-2.74527-6.03013L74.38038,84.0337Z"/><path class="cls-1" d="M94.08052,85.73482l.4789.4924a4.95853,4.95853,0,0,1-3.70307,1.46369l-.19562.72847a1.2106,1.2106,0,0,1,1.27147,1.19389c0,.7622-.65765,1.2411-1.56824,1.2411A1.824,1.824,0,0,1,89.18355,90.48l.2091-.4182a1.57918,1.57918,0,0,0,.97131.31365c.59693,0,.98478-.2833.98478-.78918,0-.44855-.344-.7622-.98478-.7622h-.29679l.29679-1.15a5.29656,5.29656,0,0,1,.47889-10.57973,4.9901,4.9901,0,0,1,3.71657,1.44683l-.4789.4924a4.37929,4.37929,0,0,0-3.21069-1.23773,4.59762,4.59762,0,1,0,0,9.1936,4.39446,4.39446,0,0,0,3.21069-1.2546"/><path class="cls-1" d="M105.65987,84.67517H99.59938L98.274,87.616h-.82291l4.8059-10.44819h.76219L107.82506,87.616h-.82291Zm-.28329-.64079-2.74526-6.03014-2.73178,6.03014Zm-4.46189-7.89517h-.49241c.03036-.8971.50589-1.49067,1.23773-1.49067.89711,0,1.29844,1.02863,1.92574,1.02863.462,0,.76219-.37435.78917-.94094h.4924c-.027.86675-.50588,1.46369-1.23773,1.46369-.89373,0-1.29844-1.032-1.92573-1.032-.46205,0-.75883.37435-.78917.97129"/><path class="cls-1" d="M110.94231,82.39194a5.43491,5.43491,0,1,1,5.4332,5.2983,5.23143,5.23143,0,0,1-5.4332-5.2983m10.09071,0a4.66475,4.66475,0,1,0-4.65751,4.5968,4.51264,4.51264,0,0,0,4.65751-4.5968"/><polygon class="cls-1" points="133.799 77.855 133.799 82.317 139.364 82.317 139.364 83.005 133.799 83.005 133.799 87.615 133.037 87.615 133.037 77.167 140.021 77.167 140.021 77.855 133.799 77.855"/><rect class="cls-1" x="144.82778" y="77.16886" width="0.7622" height="10.44819"/><polygon class="cls-1" points="160.117 77.169 160.117 87.617 159.49 87.617 152.374 78.541 152.374 87.617 151.612 87.617 151.612 77.169 152.252 77.169 159.355 86.241 159.355 77.169 160.117 77.169"/><path class="cls-1" d="M172.59307,84.67449h-6.0605l-1.32542,2.94087h-.8229l4.80589-10.44819h.76221l4.8059,10.44819h-.82291Zm-.2833-.64079-2.74527-6.03013-2.73177,6.03013Z"/><polygon class="cls-1" points="187.531 77.169 187.531 87.617 186.904 87.617 179.787 78.541 179.787 87.617 179.025 87.617 179.025 77.169 179.666 77.169 186.769 86.241 186.769 77.169 187.531 77.169"/><path class="cls-1" d="M192.54177,82.39194a5.21722,5.21722,0,0,1,5.41632-5.29829,4.99,4.99,0,0,1,3.71655,1.44683l-.47553.49239a4.37924,4.37924,0,0,0-3.21066-1.23773,4.59762,4.59762,0,1,0,0,9.1936,4.3944,4.3944,0,0,0,3.21066-1.25459l.47553.49239a4.98929,4.98929,0,0,1-3.71655,1.4637,5.21723,5.21723,0,0,1-5.41632-5.2983"/><polygon class="cls-1" points="213.81 86.929 213.81 87.617 206.603 87.617 206.603 77.169 213.587 77.169 213.587 77.857 207.361 77.857 207.361 81.974 212.93 81.974 212.93 82.646 207.361 82.646 207.361 86.929 213.81 86.929"/><rect class="cls-1" x="218.96004" y="77.16886" width="0.76219" height="10.44819"/><path class="cls-1" d="M232.99426,87.614l-2.49232-3.4906a7.52344,7.52344,0,0,1-1.01512.07419h-2.98473V87.614h-.75882V77.16919h3.74355c2.62722,0,4.20893,1.31193,4.20893,3.521a3.20658,3.20658,0,0,1-2.44847,3.268L233.861,87.614Zm-3.50744-4.08755c2.23936,0,3.43326-1.04549,3.43326-2.83632,0-1.80432-1.1939-2.83633-3.43326-2.83633h-2.98473v5.67265Z"/><path class="cls-1" d="M245.32065,84.67449h-6.05713l-1.32878,2.94087h-.82292l4.80591-10.44819h.76219l4.80591,10.44819h-.82291Zm-.28329-.64079-2.74527-6.03013-2.73177,6.03013Z"/><path class="cls-1" d="M265.925,80.69082c0,2.19217-1.58174,3.50747-4.209,3.50747h-2.98472v3.4164h-.75882V77.16987H261.716c2.62722,0,4.209,1.31192,4.209,3.52095m-.77567,0c0-1.80769-1.1939-2.83632-3.43329-2.83632h-2.98472v5.65578H261.716c2.23939,0,3.43329-1.02863,3.43329-2.81946"/><path class="cls-1" d="M276.80317,84.67449H270.746l-1.32878,2.94087h-.82292l4.80591-10.44819h.76219l4.80591,10.44819h-.82291Zm-.28329-.64079-2.74528-6.03013-2.73176,6.03013Z"/><path class="cls-1" d="M290.48936,87.614l-2.49232-3.4906a7.52347,7.52347,0,0,1-1.01513.07419h-2.98472V87.614h-.75882V77.16919h3.74354c2.62723,0,4.20894,1.31193,4.20894,3.521a3.20658,3.20658,0,0,1-2.44847,3.268l2.61374,3.65586Zm-3.50745-4.08755c2.23936,0,3.43326-1.04549,3.43326-2.83632,0-1.80432-1.1939-2.83633-3.43326-2.83633h-2.98472v5.67265Z"/><path class="cls-1" d="M302.81539,84.67449h-6.05713l-1.32878,2.94087h-.82292l4.80591-10.44819h.76219l4.80591,10.44819h-.82292Zm-.28329-.64079-2.74528-6.03013-2.73176,6.03013Z"/><polygon class="cls-1" points="317.465 77.855 313.705 77.855 313.705 77.167 321.988 77.167 321.988 77.855 318.227 77.855 318.227 87.615 317.465 87.615 317.465 77.855"/><path class="cls-1" d="M325.09184,82.39194a5.43491,5.43491,0,1,1,5.43319,5.2983,5.23143,5.23143,0,0,1-5.43319-5.2983m10.09071,0a4.66475,4.66475,0,1,0-4.65752,4.5968,4.51264,4.51264,0,0,0,4.65752-4.5968"/><path class="cls-1" d="M340.97088,77.16852h4.13476c3.31186,0,5.55122,2.17867,5.55122,5.2241s-2.23936,5.22409-5.55122,5.22409h-4.13476Zm4.07406,9.76019c2.95436,0,4.84973-1.88189,4.84973-4.53609,0-2.65758-1.89537-4.5361-4.84973-4.5361h-3.31186v9.07219Z"/><path class="cls-1" d="M354.66581,82.39194a5.43492,5.43492,0,1,1,5.4332,5.2983,5.23143,5.23143,0,0,1-5.4332-5.2983m10.09072,0a4.66475,4.66475,0,1,0-4.65752,4.5968,4.51264,4.51264,0,0,0,4.65752-4.5968"/><path class="cls-1" d="M369.48453,86.27174l.344-.56659a4.96809,4.96809,0,0,0,3.44674,1.31529c2.091,0,3.01509-.91059,3.01509-2.04714,0-3.13311-6.52253-1.25122-6.52253-5.10268,0-1.47719,1.13318-2.77562,3.70307-2.77562a5.59228,5.59228,0,0,1,3.1466.94094l-.2833.61044a5.165,5.165,0,0,0-2.8633-.88024c-2.03029,0-2.94088.94094-2.94088,2.091,0,3.1331,6.52253,1.28157,6.52253,5.07233,0,1.47718-1.18039,2.75875-3.76377,2.75875a5.35165,5.35165,0,0,1-3.80424-1.41647"/><path class="cls-2" d="M26.16083,47.91129H1.03837c2.045-2.63766,6.89882-4.4907,12.56019-4.4907,5.66345,0,10.51516,1.853,12.56227,4.4907"/><path class="cls-2" d="M27.199,50.70316a2.83167,2.83167,0,0,1-.01252.29841v-.59682a2.85549,2.85549,0,0,1,.01252.29841"/><path class="cls-2" d="M27.199,46.41153c0,4.02118-6.08916,7.2807-13.59939,7.2807S.00021,50.43271.00021,46.41153s6.08915-7.28068,13.59938-7.28068S27.199,42.39036,27.199,46.41153"/><path class="cls-2" d="M13.59939,54.49876C7.22852,54.49876,1.949,52.2868,0,49.12953V50.703c0,.12729.00626.25249.01878.3777.36519,3.84589,6.30618,6.9009,13.58061,6.9009,7.27234,0,13.21543-3.055,13.58061-6.9009a.48872.48872,0,0,0,.00626-.07929v-1.851c-1.95947,3.14683-7.23061,5.34836-13.58687,5.34836"/><path class="cls-2" d="M13.59939,58.6946C7.22852,58.6946,1.949,56.48264,0,53.32329v1.5755a3.71073,3.71073,0,0,0,.01878.37561c.36519,3.848,6.30618,6.903,13.58061,6.903,7.27234,0,13.21543-3.055,13.58061-6.903a.44526.44526,0,0,0,.00626-.0772v-1.851c-1.95947,3.14683-7.23061,5.34836-13.58687,5.34836"/><path class="cls-2" d="M58.426,33.49973c0,4.02118-6.08708,7.2807-13.59939,7.2807-7.51024,0-13.59939-3.25952-13.59939-7.2807S37.31641,26.219,44.82665,26.219c7.51231,0,13.59939,3.25952,13.59939,7.28069"/><path class="cls-2" d="M44.82748,41.587c-6.373,0-11.65245-2.212-13.59939-5.36922v1.57342a3.188,3.188,0,0,0,.01878.37561c.36519,3.848,6.30618,6.903,13.58061,6.903,7.27233,0,13.21543-3.055,13.5806-6.903.00208-.02295.00626-.05008.00626-.07721v-1.851C56.45488,39.38543,51.18373,41.587,44.82748,41.587"/><path class="cls-2" d="M44.82748,45.78175c-6.373,0-11.65245-2.212-13.59939-5.36922V41.986a3.24663,3.24663,0,0,0,.01878.3777c.36519,3.84589,6.30618,6.9009,13.58061,6.9009,7.27233,0,13.21543-3.055,13.5806-6.9009.00208-.025.00626-.05217.00626-.0793v-1.851c-1.95946,3.14683-7.23061,5.34835-13.58686,5.34835"/><path class="cls-2" d="M44.82748,50.08568c-6.373,0-11.65245-2.212-13.59939-5.36922v1.57342a3.24663,3.24663,0,0,0,.01878.3777c.36519,3.84589,6.30618,6.9009,13.58061,6.9009,7.27233,0,13.21543-3.055,13.5806-6.9009.00208-.025.00626-.05217.00626-.0793V44.73733c-1.95946,3.14892-7.23061,5.34835-13.58686,5.34835"/><path class="cls-2" d="M44.82748,54.38962c-6.373,0-11.65245-2.20988-13.59939-5.36922v1.57341a3.224,3.224,0,0,0,.01878.37771c.36519,3.84589,6.30618,6.9009,13.58061,6.9009,7.27233,0,13.21543-3.055,13.5806-6.9009.00208-.02505.00626-.05217.00626-.0793v-1.851c-1.95946,3.14892-7.23061,5.34836-13.58686,5.34836"/><path class="cls-2" d="M44.82748,58.6946c-6.373,0-11.65245-2.212-13.59939-5.37131v1.5755a3.18811,3.18811,0,0,0,.01878.37561c.36519,3.848,6.30618,6.903,13.58061,6.903,7.27233,0,13.21543-3.055,13.5806-6.903.00208-.023.00626-.05008.00626-.0772v-1.851c-1.95946,3.14683-7.23061,5.34836-13.58686,5.34836"/><path class="cls-2" d="M89.34926,20.44937c0,4.02118-6.08917,7.2807-13.5994,7.2807s-13.59938-3.25952-13.59938-7.2807,6.08915-7.28069,13.59938-7.28069,13.5994,3.25952,13.5994,7.28069"/><path class="cls-2" d="M75.74965,28.53659c-6.37087,0-11.65036-2.20987-13.5994-5.36922v1.57342a3.75229,3.75229,0,0,0,.01879.3777c.36519,3.84589,6.30618,6.903,13.58061,6.903,7.27233,0,13.21543-3.0571,13.5806-6.903a.482.482,0,0,0,.00626-.07721v-1.853c-1.95946,3.14892-7.2306,5.34835-13.58686,5.34835"/><path class="cls-2" d="M75.74965,32.73243c-6.37087,0-11.65036-2.212-13.5994-5.36922v1.57342a3.71057,3.71057,0,0,0,.01879.37561c.36519,3.848,6.30618,6.903,13.58061,6.903,7.27233,0,13.21543-3.055,13.5806-6.903a.4453.4453,0,0,0,.00626-.07721V27.38408c-1.95946,3.14683-7.2306,5.34835-13.58686,5.34835"/><path class="cls-2" d="M75.74965,37.03637c-6.37087,0-11.65036-2.212-13.5994-5.36922v1.57342c0,.12728.00627.25249.01879.3777.36519,3.84589,6.30618,6.9009,13.58061,6.9009,7.27233,0,13.21543-3.055,13.5806-6.9009a.48875.48875,0,0,0,.00626-.0793V31.688c-1.95946,3.14684-7.2306,5.34836-13.58686,5.34836"/><path class="cls-2" d="M75.74965,41.3403c-6.37087,0-11.65036-2.212-13.5994-5.36922V37.5445c0,.12729.00627.25249.01879.3777.36519,3.84589,6.30618,6.9009,13.58061,6.9009,7.27233,0,13.21543-3.055,13.5806-6.9009a.48875.48875,0,0,0,.00626-.0793V35.992c-1.95946,3.14683-7.2306,5.34835-13.58686,5.34835"/><path class="cls-2" d="M75.74965,45.64424c-6.37087,0-11.65036-2.212-13.5994-5.36922v1.57341c0,.12729.00627.2525.01879.37771C62.53423,46.072,68.47522,49.127,75.74965,49.127c7.27233,0,13.21543-3.055,13.5806-6.90089a.48893.48893,0,0,0,.00626-.0793v-1.851c-1.95946,3.14683-7.2306,5.34836-13.58686,5.34836"/><path class="cls-2" d="M75.74965,49.94817c-6.37087,0-11.65036-2.20987-13.5994-5.36922v1.57341c0,.12729.00627.2525.01879.37771.36519,3.84589,6.30618,6.9009,13.58061,6.9009,7.27233,0,13.21543-3.055,13.5806-6.9009a.48884.48884,0,0,0,.00626-.0793V44.59982c-1.95946,3.14891-7.2306,5.34835-13.58686,5.34835"/><path class="cls-2" d="M75.74965,54.2521c-6.37087,0-11.65036-2.20987-13.5994-5.36922V50.4563a3.75229,3.75229,0,0,0,.01879.3777c.36519,3.84589,6.30618,6.9009,13.58061,6.9009,7.27233,0,13.21543-3.055,13.5806-6.9009a.48875.48875,0,0,0,.00626-.0793V48.90375c-1.95946,3.14892-7.2306,5.34835-13.58686,5.34835"/><path class="cls-2" d="M75.74965,58.55708c-6.37087,0-11.65036-2.212-13.5994-5.37131v1.57551a3.71072,3.71072,0,0,0,.01879.37561c.36519,3.848,6.30618,6.903,13.58061,6.903,7.27233,0,13.21543-3.055,13.5806-6.903a.44538.44538,0,0,0,.00626-.07721V53.20873c-1.95946,3.14683-7.2306,5.34835-13.58686,5.34835"/><path class="cls-2" d="M120.94211,7.28069c0,4.02118-6.08709,7.28069-13.5994,7.28069-7.51024,0-13.5973-3.25951-13.5973-7.28069S99.83247,0,107.34271,0c7.51231,0,13.5994,3.25951,13.5994,7.28069"/><path class="cls-2" d="M107.34357,15.36791c-6.37087,0-11.65036-2.212-13.5994-5.36922v1.57342a3.7138,3.7138,0,0,0,.01878.37561c.36519,3.848,6.30619,6.903,13.58062,6.903,7.27233,0,13.21542-3.055,13.58059-6.903.00209-.02295.00626-.05008.00626-.07721V10.01956c-1.95945,3.14683-7.2306,5.34835-13.58685,5.34835"/><path class="cls-2" d="M107.34357,19.56292c-6.37087,0-11.65036-2.212-13.5994-5.36922v1.57341c0,.12729.00627.2525.01878.37771.36519,3.84588,6.30619,6.9009,13.58062,6.9009,7.27233,0,13.21542-3.055,13.58059-6.9009.00209-.02505.00626-.05218.00626-.07931V14.21456c-1.95945,3.14683-7.2306,5.34836-13.58685,5.34836"/><path class="cls-2" d="M107.34357,23.86685c-6.37087,0-11.65036-2.212-13.5994-5.36922v1.57342c0,.12728.00627.25249.01878.3777.36519,3.84589,6.30619,6.9009,13.58062,6.9009,7.27233,0,13.21542-3.055,13.58059-6.9009.00209-.025.00626-.05217.00626-.0793v-1.851c-1.95945,3.14684-7.2306,5.34836-13.58685,5.34836"/><path class="cls-2" d="M107.34357,28.17078c-6.37087,0-11.65036-2.20987-13.5994-5.36922V24.375a3.75525,3.75525,0,0,0,.01878.3777c.36519,3.84589,6.30619,6.9009,13.58062,6.9009,7.27233,0,13.21542-3.055,13.58059-6.9009.00209-.025.00626-.05217.00626-.0793v-1.851c-1.95945,3.14892-7.2306,5.34835-13.58685,5.34835"/><path class="cls-2" d="M107.34357,32.47472c-6.37087,0-11.65036-2.20987-13.5994-5.36922v1.57342a3.7554,3.7554,0,0,0,.01878.3777c.36519,3.84589,6.30619,6.903,13.58062,6.903,7.27233,0,13.21542-3.05709,13.58059-6.903.00209-.02505.00626-.05217.00626-.07722v-1.853c-1.95945,3.14892-7.2306,5.34836-13.58685,5.34836"/><path class="cls-2" d="M107.34357,36.77949c-6.37087,0-11.65036-2.212-13.5994-5.37131v1.57551a3.71345,3.71345,0,0,0,.01878.3756c.36519,3.848,6.30619,6.903,13.58062,6.903,7.27233,0,13.21542-3.055,13.58059-6.903.00209-.023.00626-.05007.00626-.0772v-1.851c-1.95945,3.14684-7.2306,5.34836-13.58685,5.34836"/><path class="cls-2" d="M107.34357,41.08342c-6.37087,0-11.65036-2.21195-13.5994-5.3713v1.5755a3.71365,3.71365,0,0,0,.01878.37561c.36519,3.848,6.30619,6.903,13.58062,6.903,7.27233,0,13.21542-3.055,13.58059-6.903.00209-.023.00626-.05008.00626-.07721V35.73507c-1.95945,3.14683-7.2306,5.34835-13.58685,5.34835"/><path class="cls-2" d="M107.34357,45.38736c-6.37087,0-11.65036-2.212-13.5994-5.36922v1.57341a3.7135,3.7135,0,0,0,.01878.37561c.36519,3.848,6.30619,6.903,13.58062,6.903,7.27233,0,13.21542-3.055,13.58059-6.903.00209-.023.00626-.05008.00626-.0772V40.039c-1.95945,3.14683-7.2306,5.34836-13.58685,5.34836"/><path class="cls-2" d="M107.34357,49.77705c-6.37087,0-11.65036-2.212-13.5994-5.36922v1.57342c0,.12729.00627.25249.01878.3777.36519,3.84589,6.30619,6.9009,13.58062,6.9009,7.27233,0,13.21542-3.055,13.58059-6.9009.00209-.025.00626-.05217.00626-.0793V44.4287c-1.95945,3.14683-7.2306,5.34835-13.58685,5.34835"/><path class="cls-2" d="M107.34357,54.16655c-6.37087,0-11.65036-2.212-13.5994-5.36923v1.57342c0,.12729.00627.25249.01878.3777.36519,3.8459,6.30619,6.9009,13.58062,6.9009,7.27233,0,13.21542-3.055,13.58059-6.9009.00209-.025.00626-.05217.00626-.07929v-1.851c-1.95945,3.14892-7.2306,5.34836-13.58685,5.34836"/><path class="cls-2" d="M107.34357,58.55708c-6.37087,0-11.65036-2.212-13.5994-5.37131v1.57551a3.71365,3.71365,0,0,0,.01878.37561c.36519,3.848,6.30619,6.903,13.58062,6.903,7.27233,0,13.21542-3.055,13.58059-6.903.00209-.023.00626-.05008.00626-.07721V53.20873c-1.95945,3.14683-7.2306,5.34835-13.58685,5.34835"/><path class="cls-2" d="M27.18584,51.00177v.0793h-.00418c.00209-.025.00418-.05217.00418-.0793"/></g></g></svg>