<svg xmlns="http://www.w3.org/2000/svg" xmlns:xlink="http://www.w3.org/1999/xlink" viewBox="0 0 44 20"><defs><path id="a" d="M6.3 3.1h31.4v13.8H6.3z"/></defs><clipPath id="b"><use xlink:href="#a" overflow="visible"/></clipPath><g clip-path="url(#b)"><path d="M19.4 16.7h-13v-.2c0-.1.1-.3.1-.4 0-.1.1-.3.1-.4 0-.1.1-.3.1-.4 0-.1.1-.3.1-.4 0-.1.1-.3.1-.4.1-.3.1-.5.1-.6 0-.1.1-.3.1-.4 0-.1.1-.3.1-.4 0-.1 0-.2.1-.3 0-.1.1-.3.1-.4 0-.2.1-.4.1-.4 0-.1.1-.3.1-.4 0-.2.1-.4.1-.4 0-.1.1-.3.1-.4 0-.2.1-.4.1-.4 0-.1 0-.2.1-.3 0-.1.1-.4.1-.5 0-.2.1-.5.1-.6 0-.2.1-.4.1-.5 0-.1 0-.2.1-.3 0-.1.1-.3.1-.4 0-.1.1-.3.1-.4 0-.1.1-.3.1-.4 0-.1.1-.3.1-.4 0-.1.1-.3.1-.4 0-.1.1-.3.1-.4 0-.1.1-.3.1-.3-.2-.6-.1-.7-.1-.8l.1-.2.1-.1c0-.1.1-.1.2-.2l.2-.2s.1 0 .2-.1c0 0 .1-.1.2-.1s.1-.1.2-.1c0 0 .1-.1.2-.1s.2-.1.3-.1c.1 0 .2-.1.4-.1.1 0 .3-.1.4-.1h26.2v.2c0 .1-.1.3-.1.4 0 .1-.1.3-.1.4 0 .1-.1.3-.1.4 0 .1-.1.3-.1.4s-.2.6-.3.7v.4c0 .1-.1.3-.1.4 0 .1-.1.3-.1.4 0 .1-.1.3-.1.4s-.1.3-.1.4c0 .1-.1.3-.1.4 0 .1-.1.3-.1.4 0 .1-.1.3-.1.4 0 .1-.1.3-.1.4 0 .1-.1.3-.1.4 0 .1-.1.3-.1.4 0 .1-.1.3-.1.5 0 .1-.1.3-.1.4 0 .1-.1.3-.1.4 0 .1-.1.3-.1.4 0 .1-.1.3-.1.4 0 .1-.1.3-.1.4 0 .1-.1.3-.1.4 0 .1-.1.3-.1.4 0 .1-.1.3-.1.4 0 .1-.1.3-.1.4v.2l-.1.1c0 .1-.1.2-.1.2 0 .1-.1.1-.1.2s-.1.1-.1.2l-.2.2v.6l-.1.1c-.1 0-.1.1-.2.1 0 0-.1.1-.2.1s-.2.1-.3.1c-.1 0-.2.1-.3.1-.1 0-.2 0-.2.1h-.2c-.1 0-.3 0-.4.1H19.4zm-4.6-3.3h.3v-.1-.2c0-.1 0-.3.1-.4 0-.2.1-.4.1-.5 0-.1 0-.3.1-.4v-.1.2l.1.1.1.1h1.3c.1 0 .1-.1.2-.1l.1-.1.1-.1.2-.2c0-.1.1-.1.1-.1v-.1s.1-.1.1-.2.1-.2.1-.3l.1-.2v-.2V9.6l-.1-.1-.1-.1.1-.4-.1-.1-.1-.1-.1-.1H16.6c-.1 0-.1.1-.2.1l-.1.1h-.1v-.1-.2h-.6l-.3.4c0 .2-.1.4-.1.6s-.1.4-.1.5c0 .1-.1.4-.1.5 0 .1-.1.4-.1.5 0 .1-.1.3-.1.5 0 .1-.1.3-.1.5 0 .1-.1.4-.1.5 0 .1-.1.4-.1.5 0 .1-.1.2-.1.3h.4zm1.5-1.8h-.5l-.1-.1-.1-.1v-.1s0-.1-.1-.2v-.5c0-.1.1-.3.1-.5 0-.1.1-.4.1-.5v-.2l.1-.1s.1-.1.2-.1H16.9l.1.1.1.1v.1s0 .1.1.2V10.6c0 .1-.1.2-.1.3l-.1.2.1-.1c0 .1-.1.2-.1.2l-.1.1-.1.1H16.5l-.2.2zm3.2.4h.7c.1 0 .3 0 .4-.1h.2v-.1-.5h-.1s-.1.1-.2.1l-.2.1h-1.1c-.1 0-.1 0-.2-.1h-.1l-.1-.1-.1-.1V10h2.2v-.1V8.9l-.1-.1-.1-.1-.1-.1H19c-.1 0-.2.1-.2.1.3.2.2.3.2.3l-.1.1s-.1.1-.1.2-.1.1-.1.2-.1.1-.1.2c0 0-.1.1-.1.2s-.1.2-.1.3c0 .1 0 .2-.1.3V11.2c0 .1 0 .1.1.2 0 0 .1.1.1.2l.1.1.1.1s.1.1.2.1h.4c0 .1.1.1.2.1zm.3-2.2H19v-.1c0-.1.1-.2.1-.2v-.1l.1-.1.1-.1h.1c.1 0 .1-.1.2-.1H20.4v.1l.1.1V9.9h-.7v-.1zm4.7 2.2h.7c.1 0 .2 0 .2-.1h.1v-.2-.2-.1s-.1 0-.2.1l-.2.1h-1l-.1-.1-.1-.1-.1-.1-.1-.1v-1.1-.2s0-.1.1-.2c0-.1.1-.2.1-.2l.1-.1.1-.1.1-.1h1.6v-.1-.3-.1h-1.7c-.1 0-.1.1-.2.1l-.1.1c.3.1.2.1.2.2l-.1.1-.1.1c0 .1-.1.2-.1.2l-.1.2-.1.2c0 .1-.1.2-.1.3V11.4l.1.1.1.1.1.1.1.1h.5c0 .2.1.2.2.2zm2.6 0h.5s.1-.1.2-.1c0 0 .1-.1.2-.1 0 0 .1-.1.1-.2l.1-.1v.6h.6v-.7c0-.2.1-.4.1-.5 0-.1.1-.3.1-.5 0-.1.1-.3.1-.5V9.2L29 9v-.1l-.1-.1h-2v.1s0 .2-.1.3v.2h.2c.1 0 .3-.1.4-.1h1l.1.1.1.1v.4h-1.4c-.1 0-.2.1-.3.1h-.1s-.1 0-.1.1l-.1.1-.1.1c-.1.1-.1.1-.1.2 0 0-.1.1-.1.2l-.1.1v.7l.1.1.1.1.1.1.1.1h.4l.1.1zm.2-.4h-.2s-.1 0-.2-.1h-.1l-.1-.1V11s0-.1.1-.2v-.1l.1-.1.1-.1H28.2v.1c0 .1 0 .2-.1.3 0 .1-.1.2-.1.3v.1s0 .1-.1.1l.1-.2-.1.1-.1.1h-.4l-.1.2zm5.1.4h.4s.1 0 .2-.1h.1l.1-.1.1-.1.1-.1c0-.1.1-.1.1-.1v.6h.6V11.5c0-.2.1-.5.1-.6s.1-.3.1-.4c0-.1.1-.3.1-.4 0-.1.1-.3.1-.5 0-.1.1-.4.1-.5 0-.1.1-.3.1-.5 0-.1.1-.3.1-.5s.1-.3.1-.4v-.2h-.6v.1c0 .1 0 .2-.1.4 0 .2-.1.4-.1.6-.1-.1-.1.1-.1.1v.1H32.5l-.1.1-.1.1h-.2l-.1.1-.1.1-.2.2-.1.1-.1.2c0 .1-.1.2-.1.3 0 .1-.1.2-.1.3v1.1s0 .1.1.2v.1l.1.1.1.1.1.1.1.1h.1c.1 0 .1.1.2.1h.2c-.1-.2 0-.2.1-.2zm.3-.4h-.2H32.2l-.1-.1-.1-.1v-1.3-.1-.1c0-.1.1-.1.1-.2s.1-.1.1-.2c0 0 .1-.1.1-.2l.1-.1H33.4c.1 0 .2 0 .2.1v.2c0 .1-.1.3-.1.4 0 .1-.1.3-.1.5 0 .1-.1.3-.1.3 0 .1 0 .2-.1.2 0 0 0 .1-.1.2 0 0-.1.1-.1.2l-.1.1-.1.1-.1.1h-.2.2zm-23.1.3h.4v-.2c0-.1 0-.3.1-.4 0-.1.1-.4.1-.5 0-.2.1-.4.1-.5 0-.1.1-.3.1-.4v-.2h2v.1s0 .2-.1.3c0 .1-.1.4-.1.5 0 .1-.1.4-.1.5 0 .1-.1.3-.1.5s-.1.3-.1.3h.8v-.1-.2-.3c0-.1.1-.3.1-.4 0-.1.1-.4.1-.5 0-.2.1-.4.1-.5 0-.1.1-.3.1-.5 0-.1.1-.4.1-.5 0-.1.1-.4.1-.5 0-.1.1-.3.1-.5 0-.1.1-.3.1-.4v-.1h-.8v.4c0 .1 0 .3-.1.4 0 .1-.1.3-.1.5s-.1.4-.1.5v.2h-2.2v-.1c0-.1 0-.2.1-.3 0-.1 0-.2.1-.4 0-.1 0-.3.1-.3s0-.2 0-.2c0-.1 0-.2.1-.3v-.2H10V7.9c0 .1 0 .2-.1.4 0 .2-.1.4-.1.5 0 .1-.1.4-.1.5 0 .2-.1.4-.1.6 0 .1-.1.4-.1.5 0 .1-.1.3-.1.4 0 .1-.1.3-.1.4 0 .1 0 .2-.1.3 0 0 0 .2-.1.3v.2h.5v-.1zm4.2 0h.3v-.1-.3c0-.2.1-.4.1-.6 0-.2.1-.4.1-.5 0-.1.1-.3.1-.5 0-.1.1-.3.1-.4 0-.1.1-.3.1-.5s.1-.3.1-.3h-.6v.2c0 .1 0 .3-.1.5 0 .2-.1.4-.1.5 0 .1-.1.4-.1.5 0 .1-.1.3-.1.4 0 .1-.1.3-.1.4 0 .1-.1.3-.1.4v.2h.3v.1zm7.9 0h.3v-.1-.3c0-.1.1-.3.1-.5s.1-.4.1-.6c0-.2.1-.3.1-.4v-.1s0-.1.1-.1c0-.1.1-.2.1-.2l.1-.1.1-.1.1-.1.2-.1.1-.1h.6v-.2-.2H23s-.1.1-.2.1-.1.1-.2.1l-.2.2c0 .1-.1.1-.1.1v-.1-.2-.2h-.6V9c0 .1-.1.3-.1.5 0 .1-.1.4-.1.5 0 .2-.1.4-.1.5 0 .1-.1.3-.1.4 0 .1-.1.3-.1.5 0 .1-.1.3-.1.3v.1h.6v.1zm8 0h.3v-.5c0-.1.1-.4.1-.5 0-.1 0-.3.1-.4 0-.1 0-.2.1-.3 0-.1.1-.2.1-.3v-.1s0-.1.1-.2l.1-.1.1-.1.1-.1.1-.1c.1 0 .1-.1.2-.1h.7v-.4h-.6l-.1.1-.1.1-.4.1-.1.1-.1.1-.1.1v-.2-.3h-.6V9c0 .1-.1.3-.1.5s-.1.4-.1.6c0 .2-.1.4-.1.5 0 .1-.1.3-.1.4 0 .1-.1.3-.1.5 0 .1-.1.3-.1.4v.1h.6v-.1zM14.5 8.2H14.8l.1-.1-.1-.1v-.6h-.6V8h.1l.2.2z" fill="#b3131b"/></g></svg>