<svg xmlns="http://www.w3.org/2000/svg" viewBox="0 0 44 20"><path d="M10 6.5c.4-.1.8-.2 1.2-.2 1.8 0 3.3 1.3 3.6 3l2.5-.5c-.6-2.9-3.1-5-6.1-5-.7 0-1.4.1-2 .3l.8 2.4z" fill="#fff100"/><path d="M7 14.7l1.7-1.9c-.7-.7-1.2-1.7-1.2-2.8 0-1.1.5-2.1 1.2-2.8L7 5.3C5.7 6.4 4.9 8.1 4.9 10c0 1.9.8 3.6 2.1 4.7z" fill="#00a3df"/><path d="M14.8 10.7c-.3 1.7-1.8 3-3.6 3-.4 0-.8-.1-1.2-.2L9.2 16c.6.2 1.3.3 2 .3 3 0 5.6-2.2 6.1-5l-2.5-.6z" fill="#ee4023"/><path d="M25.7 12.5c-.4.4-1 .7-1.6.6-.4 0-.8-.1-1.2-.4l-.8 1.3c.6.4 1.2.6 2 .6 1.1 0 2-.4 2.7-1.1l-1.1-1zM24.2 7c-2.1 0-3.8 1.7-3.9 3.8 0 .8.2 1.5.6 2.2l6.9-3c-.3-1.7-1.8-2.9-3.6-3m-2.3 4.1v-.3c0-1.2 1-2.2 2.3-2.2.7 0 1.3.3 1.7.8l-4 1.7zM30 5.3v7.4l1.3.5-.6 1.5-1.3-.5c-.3-.1-.5-.3-.6-.5-.1-.2-.2-.5-.2-.9V5.3H30zm4.6 3.4c.2-.1.5-.1.7-.1 1.1 0 2 .8 2.2 1.8l1.5-.3C38.7 8.3 37.2 7 35.4 7c-.4 0-.8.1-1.2.2l.4 1.5zm-1.8 5l1-1.2c-.5-.4-.8-1-.8-1.7s.3-1.3.8-1.7l-1-1.2c-.8.7-1.3 1.7-1.3 2.9s.5 2.2 1.3 2.9zm4.8-2.4c-.2 1-1.1 1.8-2.2 1.8-.2 0-.5 0-.7-.1l-.5 1.5c.4.1.8.2 1.2.2 1.8 0 3.4-1.3 3.7-3.1l-1.5-.3z"/></svg>