<svg id="Camada_1" data-name="Camada 1" xmlns="http://www.w3.org/2000/svg" viewBox="0 0 68 30"><defs><style>.cls-1{fill:#2a6cb4;}.cls-2{fill:#fff;}</style></defs><g id="layer1"><path id="path3078" class="cls-1" d="M18.96266,0h30V16.1949l-1.48492,2.32018,1.48492,2.065V30h-30V14.73318l.92807-1.06728L18.96266,12.645Z"/><path id="path3082" class="cls-2" d="M24.78632,20.90487v-4.71h4.987l.53505.6975.55274-.6975H48.96266v4.38515a2.09039,2.09039,0,0,1-1.02088.32483H37.91858l-.60325-.74246v.74246h-1.9768v-1.2674a1.65854,1.65854,0,0,1-.85383.17691h-.67285v1.09048h-2.993l-.53429-.71246-.54249.71246Z"/><path id="path3080" class="cls-2" d="M18.96266,12.645l1.12458-2.62181H22.0321l.63821,1.46863V10.0232H25.088l.37993,1.06149.36833-1.06149H36.68888v.53364A2.34138,2.34138,0,0,1,38.197,10.0232l3.52129.01231.6272,1.44941V10.0232h2.0232l.55685.83257V10.0232H46.9673v4.71H44.92554l-.53364-.83527v.83527H41.41936l-.29892-.74247h-.79912l-.29407.74247H38.01138a1.99261,1.99261,0,0,1-1.3225-.52275v.52275H33.64943l-.60324-.74247v.74247H21.744l-.29872-.74247h-.79657l-.29662.74247H18.96266Z"/><path id="path3046" class="cls-1" d="M20.48528,10.60384l-1.51682,3.52668H19.956l.27987-.7062h1.627l.27842.7062h1.00928l-1.51537-3.52668Zm.56119.82077.49594,1.234h-.99333Z"/><path id="path3048" class="cls-1" d="M23.255,14.12993V10.60325l1.40334.00521.81622,2.27378.79668-2.279h1.39212v3.52668h-.88168V11.53132l-.93459,2.59861h-.77322l-.9372-2.59861v2.59861Z"/><path id="path3050" class="cls-1" d="M28.2666,14.12993V10.60325h2.877v.78886H29.15755v.60325h1.93968v.74246H29.15755v.62646h1.98608v.76566Z"/><path id="path3052" class="cls-1" d="M31.65407,10.60384v3.52668h.88168v-1.2529H32.907l1.05714,1.2529h1.07744l-1.1601-1.2993a1.074,1.074,0,0,0,.96723-1.08324,1.14079,1.14079,0,0,0-1.2326-1.14414Zm.88168.78887h1.00783a.40474.40474,0,0,1,.41763.37123.39845.39845,0,0,1-.40458.37123H32.53575v-.74246Z"/><path id="path3054" class="cls-1" d="M36.10883,14.12993H35.2086V10.60325h.90023Z"/><path id="path3056" class="cls-1" d="M38.2434,14.12993h-.19431a1.55413,1.55413,0,0,1-1.511-1.74884,1.61572,1.61572,0,0,1,1.75174-1.77784h.97447v.83526h-1.0101a.84831.84831,0,0,0-.82284.95128.86341.86341,0,0,0,.95127.96984h.232Z"/><path id="path3058" class="cls-1" d="M40.16191,10.60384l-1.51682,3.52668h.98752l.27988-.7062h1.627l.27842.7062h1.00928l-1.51537-3.52668Zm.56119.82077.49594,1.234h-.99333l.49739-1.234Z"/><path id="path3060" class="cls-1" d="M42.93018,14.12993V10.60325h1.12094L45.48238,12.819V10.60325h.88167v3.52668H45.27936l-1.46751-2.27378v2.27378Z"/><path id="path3062" class="cls-1" d="M25.38957,20.30163V16.77494h2.877v.78887H26.28052v.60325H28.2202v.74246H26.28052V19.536H28.2666v.76566Z"/><path id="path3064" class="cls-1" d="M39.487,20.30163V16.77494h2.877v.78887H40.378v.60325h1.9304v.74246H40.378V19.536h1.98608v.76566Z"/><path id="path3066" class="cls-1" d="M28.37826,20.30163,29.77907,18.56l-1.43416-1.78509H29.4557l.85412,1.10354.857-1.10354h1.06729l-1.41531,1.76334,1.40339,1.76334H31.11158l-.82932-1.08614-.80916,1.08614Z"/><path id="path3068" class="cls-1" d="M32.32693,16.77554v3.52668h.90487V19.18853h.92808a1.2197,1.2197,0,0,0,1.38051-1.2268,1.16065,1.16065,0,0,0-1.266-1.18619Zm.90487.79756h.97738a.39805.39805,0,0,1,.435.406.40682.40682,0,0,1-.43793.406H33.2318V17.5731Z"/><path id="path3072" class="cls-1" d="M35.92322,16.77494v3.52669h.88167V19.04872h.37123l1.05713,1.25291h1.07744l-1.1601-1.29931a1.074,1.074,0,0,0,.96723-1.08324,1.14079,1.14079,0,0,0-1.2326-1.14414h-1.962Zm.88167.78887h1.00783a.40474.40474,0,0,1,.41763.37123.39845.39845,0,0,1-.40458.37123H36.80489Z"/><path id="path3074" class="cls-1" d="M42.77241,20.30163V19.536h1.7645c.26108,0,.37413-.14108.37413-.29582,0-.14826-.11269-.29815-.37413-.29815h-.79736a.98588.98588,0,0,1-1.07909-1.05626c0-.56547.35348-1.11079,1.38341-1.11079h1.71694l-.37123.7935H43.90466c-.28386,0-.37123.149-.37123.29119a.30742.30742,0,0,0,.32482.30742h.83527a.9674.9674,0,0,1,1.10789,1.01219,1.0574,1.0574,0,0,1-1.14995,1.12239Z"/><path id="path3076" class="cls-1" d="M46.00834,20.30163V19.536h1.7645c.26109,0,.37413-.14108.37413-.29582,0-.14826-.11269-.29815-.37413-.29815h-.79736a.98588.98588,0,0,1-1.07909-1.05626c0-.56547.35348-1.11079,1.38341-1.11079h1.71694l-.37123.7935H47.14059c-.28385,0-.37123.149-.37123.29119a.30743.30743,0,0,0,.32483.30742h.83526a.9674.9674,0,0,1,1.10789,1.01219,1.0574,1.0574,0,0,1-1.14995,1.12239Z"/></g></svg>