<svg id="Camada_1" data-name="Camada 1" xmlns="http://www.w3.org/2000/svg" viewBox="0 0 68 30"><defs><style>.cls-1{fill:#f3e221;}.cls-2{fill:#293577;}.cls-3{fill:#c21f35;}</style></defs><path class="cls-1" d="M56.825,18.73479q0,5.55408.00313,11.10814c.00012.12191-.01549.15708-.1502.157q-22.6783-.00616-45.3566,0c-.1353,0-.15-.03606-.14986-.15735q.00557-6.06069.00308-12.12137c2.122-.5357,4.25551-1.01885,6.40708-1.42129,1.65974-.31044,3.32542-.583,4.99991-.80112,1.64974-.21488,3.30273-.3966,4.96309-.50909,1.50351-.10186,3.0074-.20411,4.51454-.2143,1.369-.00926,2.73851-.016,4.10713.04931,1.72418.08224,3.44558.19548,5.16153.38823a69.53066,69.53066,0,0,1,7.85372,1.34187q2.85258.65713,5.64282,1.542C55.492,18.30714,56.15816,18.522,56.825,18.73479ZM28.79848,24.41912c-.07514-.11209-.127-.1943-.18358-.27314q-1.51132-2.10579-3.02148-4.21241a.21689.21689,0,0,0-.20443-.09784c-.27518.00367-.55065.01051-.82553.0016a.30048.30048,0,0,0-.28875.157q-1.44277,2.14823-2.89291,4.29149c-.02274.03372-.07047.0644-.03963.11239.02319.03609.068.02216.10453.02216.25018,0,.50108-.01218.75032.00291a.387.387,0,0,0,.38543-.222c.21232-.34623.43611-.68539.65094-1.03011a.23758.23758,0,0,1,.22541-.13017q1.53867.00393,3.07736-.00257a.18968.18968,0,0,1,.18138.09892c.25338.38661.51588.76724.77388,1.15084.04234.06294.07735.13094.16773.13091C28.02588,24.419,28.39262,24.41912,28.79848,24.41912ZM47.05,24.41779a1.115,1.115,0,0,1-.2902-.79137c.00343-.48762-.00318-.97529-.00479-1.46294a.83331.83331,0,0,0-.31106-.74552,1.46636,1.46636,0,0,0-.45694-.21207,6.26807,6.26807,0,0,0-2.4193-.12068,3.05161,3.05161,0,0,0-1.0808.28934,1.28618,1.28618,0,0,0-.53948.50566c-.06892.11885-.06282.19472.10612.19968.206.00606.41218.023.61689.04705a.21968.21968,0,0,0,.25764-.1278.66509.66509,0,0,1,.40314-.34471,3.21165,3.21165,0,0,1,2.13073.04157.49048.49048,0,0,1,.29531.46361c.01085.11423-.02287.17219-.1467.1843-.23625.02309-.47066.0648-.70683.08919-.603.06231-1.21151.06856-1.81059.17123a2.2482,2.2482,0,0,0-1.04909.37224.65874.65874,0,0,0,.03068,1.17057,2.071,2.071,0,0,0,1.06132.32927,4.90231,4.90231,0,0,0,2.53108-.3745c.11948-.05523.18343-.06974.21482.09149.0204.10482.07462.222.21671.22347C46.403,24.41989,46.70733,24.41779,47.05,24.41779ZM35.07914,22.78016h.00355c0-.49391-.0061-.98793.00353-1.48165.00309-.15837-.049-.20765-.20192-.19969a5.0128,5.0128,0,0,1-.59988-.00136c-.16254-.01108-.21582.03594-.21127.20621q.02125.79665.01071,1.594a.92489.92489,0,0,1-.7456.98879,2.88318,2.88318,0,0,1-1.3521.08441.65317.65317,0,0,1-.58115-.45167,1.9447,1.9447,0,0,1-.06093-.53778c-.00382-.56891-.00541-1.13787-.0004-1.70675.00112-.12686-.03416-.17918-.16723-.17468-.22481.00761-.45019.00477-.67514-.00113-.108-.00283-.15687.02489-.15486.14587.01175.70618.02163,1.41248.022,2.11874a.93564.93564,0,0,0,.63185.90724,1.78852,1.78852,0,0,0,.40647.1353,3.48656,3.48656,0,0,0,2.56417-.31632c.19595-.12168.21388-.108.20317.119-.00821.174.05387.22858.2249.21329a3.878,3.878,0,0,1,.52481-.00069c.12193.00571.1601-.03455.15828-.15955C35.0749,23.768,35.07914,23.27406,35.07914,22.78016Zm3.26866-1.24893c0-.09782-.0056-.196.0015-.29334.00781-.10708-.03362-.14071-.13946-.13761-.21229.0062-.425.00215-.63742-.00208-.08466-.00168-.12163.02283-.12134.11615q.00471,1.54689.00217,3.09379c-.00007.0747.01671.11714.10306.11576.25-.004.5-.00356.75-.00332.068.00006.102-.02414.10446-.098.006-.17957.02512-.35886.02688-.53839.00379-.38746-.00334-.775.00019-1.16249a.92155.92155,0,0,1,.57493-.90414,1.54612,1.54612,0,0,1,.81235-.07395c.451.08313.44518.08015.70027-.28357.08632-.12308.03916-.15625-.07089-.19176a2.90445,2.90445,0,0,0-.84714-.14056A1.72393,1.72393,0,0,0,38.3478,21.53123Z"/><path class="cls-2" d="M11.17454,13.29183V.00349Q33.91529.00349,56.65605,0c.14074,0,.17262.03165.17249.17241q-.00643,6.95385-.00355,13.90771a.35354.35354,0,0,1-.19762-.0469c-1.39727-.514-2.81907-.95171-4.25631-1.33637q-2.53635-.67881-5.12021-1.15332c-1.58731-.28984-3.17954-.543-4.78379-.71786-.06324-.00689-.12615-.00468-.1618-.07047a7.82462,7.82462,0,0,0-.70332-1.81175,7.4378,7.4378,0,0,0-2.33273-2.57426,9.24224,9.24224,0,0,0-5.09455-1.55063,9.87021,9.87021,0,0,0-2.58832.24893A7.83031,7.83031,0,0,0,28.1242,6.864a8.76436,8.76436,0,0,0-2.0039,2.68932,5.90707,5.90707,0,0,0-.43725,1.07184c-.80712.09026-1.61452.17814-2.42132.27126-1.8758.2165-3.73963.51455-5.5927.87284C15.48483,12.19155,13.31622,12.68562,11.17454,13.29183Z"/><path class="cls-3" d="M42.30526,10.7552c.03565.06579.09856.06358.1618.07047,1.60425.17485,3.19648.428,4.78379.71786q2.58425.47185,5.12021,1.15332c1.43724.38466,2.859.8224,4.25631,1.33637a.35354.35354,0,0,0,.19762.0469v4.65467c-.66683-.21276-1.333-.42765-2.00063-.63789q-2.79179-.87919-5.64282-1.542A69.53066,69.53066,0,0,0,41.32782,15.213c-1.71595-.19275-3.43735-.306-5.16153-.38823-1.36862-.06529-2.7381-.05857-4.10713-.04931-1.50714.01019-3.011.11244-4.51454.2143-1.66036.11249-3.31335.29421-4.96309.50909-1.67449.21811-3.34017.49068-4.99991.80112-2.15157.40244-4.28513.88559-6.40708,1.42129V13.29183c2.14168-.60621,4.31029-1.10028,6.49449-1.5226,1.85307-.35829,3.7169-.65634,5.5927-.87284.8068-.09312,1.6142-.181,2.42132-.27126.69813-.04285,1.39645-.08278,2.09435-.12913,1.53354-.10186,3.06818-.18571,4.605-.20089.90554-.00894,1.81149-.01735,2.71748.016.66769.02462,1.3354.04164,2.00272.08029,1.678.09718,3.35347.223,5.02406.41045C42.18778,10.80874,42.26656,10.8486,42.30526,10.7552Z"/><path class="cls-2" d="M28.79848,24.41912c-.40586,0-.7726-.00009-1.13933.00005-.09038,0-.12539-.068-.16773-.13091-.258-.3836-.5205-.76423-.77388-1.15084a.18968.18968,0,0,0-.18138-.09892q-1.53867.00436-3.07736.00257a.23758.23758,0,0,0-.22541.13017c-.21483.34472-.43862.68388-.65094,1.03011a.387.387,0,0,1-.38543.222c-.24924-.01509-.50014-.00291-.75032-.00291-.03649,0-.08134.01393-.10453-.02216-.03084-.048.01689-.07867.03963-.11239q1.44714-2.14529,2.89291-4.29149a.30048.30048,0,0,1,.28875-.157c.27488.00891.55035.00207.82553-.0016a.21689.21689,0,0,1,.20443.09784q1.50747,2.10855,3.02148,4.21241C28.67148,24.22482,28.72334,24.307,28.79848,24.41912Zm-3.861-4.03517c-.05049.10794-.08351.18148-.119.25383a17.57149,17.57149,0,0,1-1.06912,1.71512c-.02951.046-.09189.09232-.0682.14464.0304.06713.11056.03613.16868.03619q1.1433.00117,2.28659-.00287c.04608-.00013.1091.02958.13315-.03088.02034-.05114-.02887-.09034-.05566-.13076-.11-.166-.22147-.331-.331-.49732C25.56553,21.38961,25.2382,20.91367,24.93752,20.384Z"/><path class="cls-2" d="M47.05,24.41779c-.34265,0-.647.0021-.95134-.00092-.14209-.00142-.19631-.11865-.21671-.22347-.03139-.16123-.09534-.14672-.21482-.09149a4.90231,4.90231,0,0,1-2.53108.3745,2.071,2.071,0,0,1-1.06132-.32927.65874.65874,0,0,1-.03068-1.17057,2.2482,2.2482,0,0,1,1.04909-.37224c.59908-.10267,1.20756-.10892,1.81059-.17123.23617-.02439.47058-.0661.70683-.08919.12383-.01211.15755-.07007.1467-.1843a.49048.49048,0,0,0-.29531-.46361,3.21165,3.21165,0,0,0-2.13073-.04157.66509.66509,0,0,0-.40314.34471.21968.21968,0,0,1-.25764.1278c-.20471-.02407-.41091-.041-.61689-.04705-.16894-.005-.175-.08083-.10612-.19968a1.28618,1.28618,0,0,1,.53948-.50566,3.05161,3.05161,0,0,1,1.0808-.28934,6.26807,6.26807,0,0,1,2.4193.12068,1.46636,1.46636,0,0,1,.45694.21207.83331.83331,0,0,1,.31106.74552c.00161.48765.00822.97532.00479,1.46294A1.115,1.115,0,0,0,47.05,24.41779Zm-3.059-.36555a2.79562,2.79562,0,0,0,1.23489-.25905.82264.82264,0,0,0,.51286-.88967c-.00555-.09754-.02362-.13212-.13-.11106a15.18662,15.18662,0,0,1-1.99813.23933,1.37887,1.37887,0,0,0-.60751.1736.35023.35023,0,0,0-.00879.65728A1.843,1.843,0,0,0,43.991,24.05224Z"/><path class="cls-2" d="M35.07914,22.78016c0,.4939-.00424.98787.00295,1.48167.00182.125-.03635.16526-.15828.15955a3.878,3.878,0,0,0-.52481.00069c-.171.01529-.23311-.03929-.2249-.21329.01071-.22707-.00722-.24072-.20317-.119a3.48656,3.48656,0,0,1-2.56417.31632,1.78852,1.78852,0,0,1-.40647-.1353.93564.93564,0,0,1-.63185-.90724c-.00036-.70626-.01024-1.41256-.022-2.11874-.002-.121.04682-.1487.15486-.14587.22495.0059.45033.00874.67514.00113.13307-.0045.16835.04782.16723.17468-.005.56888-.00342,1.13784.0004,1.70675a1.9447,1.9447,0,0,0,.06093.53778.65317.65317,0,0,0,.58115.45167,2.88318,2.88318,0,0,0,1.3521-.08441.92489.92489,0,0,0,.7456-.98879q.00987-.79692-.01071-1.594c-.00455-.17027.04873-.21729.21127-.20621a5.0128,5.0128,0,0,0,.59988.00136c.153-.008.205.04132.20192.19969-.00963.49372-.00353.98774-.00353,1.48165Z"/><path class="cls-2" d="M38.3478,21.53123a1.72393,1.72393,0,0,1,1.25957-.50355,2.90445,2.90445,0,0,1,.84714.14056c.11005.03551.15721.06868.07089.19176-.25509.36372-.24931.3667-.70027.28357a1.54612,1.54612,0,0,0-.81235.07395.92155.92155,0,0,0-.57493.90414c-.00353.38747.0036.775-.00019,1.16249-.00176.17953-.02084.35882-.02688.53839-.00249.0739-.03641.0981-.10446.098-.25-.00024-.50005-.00067-.75.00332-.08635.00138-.10313-.04106-.10306-.11576q.00129-1.54689-.00217-3.09379c-.00029-.09332.03668-.11783.12134-.11615.21244.00423.42513.00828.63742.00208.10584-.0031.14727.03053.13946.13761C38.3422,21.33519,38.3478,21.43341,38.3478,21.53123Z"/><path class="cls-1" d="M42.30526,10.7552c-.0387.0934-.11748.05354-.17855.04669-1.67059-.18741-3.346-.31327-5.02406-.41045-.66732-.03865-1.335-.05567-2.00272-.08029-.906-.03339-1.81194-.025-2.71748-.016-1.53687.01518-3.07151.099-4.605.20089-.6979.04635-1.39622.08628-2.09435.12913a5.90707,5.90707,0,0,1,.43725-1.07184A8.76436,8.76436,0,0,1,28.1242,6.864a7.83031,7.83031,0,0,1,3.46214-1.79648,9.87021,9.87021,0,0,1,2.58832-.24893,9.24224,9.24224,0,0,1,5.09455,1.55063,7.4378,7.4378,0,0,1,2.33273,2.57426A7.82462,7.82462,0,0,1,42.30526,10.7552Z"/><path class="cls-1" d="M24.93752,20.384c.30068.52972.628,1.00566.94551,1.488.10949.16632.22094.33135.331.49732.02679.04042.076.07962.05566.13076-.024.06046-.08707.03075-.13315.03088q-1.14329.0034-2.28659.00287c-.05812-.00006-.13828.03094-.16868-.03619-.02369-.05232.03869-.09864.0682-.14464a17.57149,17.57149,0,0,0,1.06912-1.71512C24.854,20.56543,24.887,20.49189,24.93752,20.384Z"/><path class="cls-1" d="M43.991,24.05224a1.843,1.843,0,0,1-.9967-.18957.35023.35023,0,0,1,.00879-.65728,1.37887,1.37887,0,0,1,.60751-.1736,15.18662,15.18662,0,0,0,1.99813-.23933c.1064-.02106.12447.01352.13.11106a.82264.82264,0,0,1-.51286.88967A2.79562,2.79562,0,0,1,43.991,24.05224Z"/></svg>