<svg id="Camada_1" data-name="Camada 1" xmlns="http://www.w3.org/2000/svg" viewBox="0 0 68 30"><defs><style>.cls-1{fill:#077abf;}.cls-2{fill:#fff;}</style></defs><path class="cls-1" d="M37.25028,29.99983c8.19935.03922,15.68324-6.68693,15.68324-14.86956C52.93352,6.18211,45.44964-.003,37.25028,0H30.19377A14.79625,14.79625,0,0,0,15.06648,15.13027,15.02916,15.02916,0,0,0,30.19377,29.99983Z"/><path class="cls-2" d="M30.22716,1.23987A13.73237,13.73237,0,1,0,43.95738,14.97319,13.73276,13.73276,0,0,0,30.22716,1.23987ZM21.52543,14.97319h0A8.718,8.718,0,0,1,27.1117,6.85V23.09451A8.71411,8.71411,0,0,1,21.52543,14.97319Zm11.816,8.12489h0V6.84943a8.6989,8.6989,0,0,1,0,16.24865Z"/><path class="cls-1" d="M37.25028,29.99983c8.19935.03922,15.68324-6.68693,15.68324-14.86956C52.93352,6.18211,45.44964-.003,37.25028,0H30.19377A14.79625,14.79625,0,0,0,15.06648,15.13027,15.02916,15.02916,0,0,0,30.19377,29.99983Z"/><path class="cls-2" d="M30.22716,1.23987A13.73237,13.73237,0,1,0,43.95738,14.97319,13.73276,13.73276,0,0,0,30.22716,1.23987ZM21.52543,14.97319h0A8.718,8.718,0,0,1,27.1117,6.85V23.09451A8.71411,8.71411,0,0,1,21.52543,14.97319Zm11.816,8.12489h0V6.84943a8.6989,8.6989,0,0,1,0,16.24865Z"/></svg>