<svg id="Camada_1" data-name="Camada 1" xmlns="http://www.w3.org/2000/svg" viewBox="0 0 68 30"><defs><style>.cls-1{fill:#fec90a;}.cls-1,.cls-2,.cls-3,.cls-4{fill-rule:evenodd;}.cls-2{fill:#11a4de;}.cls-3{fill:#e84328;}.cls-4{fill:#010101;}</style></defs><path class="cls-1" d="M10.61535,7.72124a7.84555,7.84555,0,0,1,2.44432-.38594,7.6755,7.6755,0,0,1,7.55811,6.04648L25.90432,12.325A13.04378,13.04378,0,0,0,13.06059,2.04784a13.32255,13.32255,0,0,0-4.15627.65978Z"/><path class="cls-2" d="M4.477,24.71481l3.61871-4.00005a7.51695,7.51695,0,0,1-.00276-11.4286L4.47513,5.28611A12.77953,12.77953,0,0,0,4.477,24.71481"/><path class="cls-3" d="M20.6187,16.61914a7.67422,7.67422,0,0,1-7.55351,6.04372,7.80131,7.80131,0,0,1-2.448-.3887L8.90432,27.2933a13.3367,13.3367,0,0,0,4.16.65886,13.04686,13.04686,0,0,0,12.84-10.26984Z"/><path class="cls-4" d="M40.86984,19.2546l-.00368.00367-.14978-.10108a4.23614,4.23614,0,0,1-1.95271,1.64119,3.78,3.78,0,0,1-4.18475-.4227l-.09833.1507-.00367-.00276L32.64459,23.2767a7.83266,7.83266,0,0,0,1.45649.8013,7.93322,7.93322,0,0,0,9.56043-2.94881ZM35.14957,12.461a3.98321,3.98321,0,0,0-2.403,4.22611l7.22271-3.12249A3.82287,3.82287,0,0,0,35.14957,12.461Zm-4.79492,8.38789a9.41826,9.41826,0,0,1-.54768-1.05951,7.81192,7.81192,0,0,1-.17-5.88476A7.7506,7.7506,0,0,1,33.79876,9.3413a7.974,7.974,0,0,1,7.35686.53849,7.88573,7.88573,0,0,1,3.28514,3.98167c.10108.23524.18838.487.27475.70114L30.35465,20.848Zm19.38-15.56281V20.59438l2.36989.96486-1.34622,3.15557L48.14308,23.6213a2.97549,2.97549,0,0,1-1.28924-1.088,3.43154,3.43154,0,0,1-.50541-1.89757V5.28611ZM55.873,16.69449a4.33911,4.33911,0,0,0,1.47026,3.264L54.91551,22.684a8.02193,8.02193,0,0,1,.00827-11.979l2.43054,2.72275A4.3373,4.3373,0,0,0,55.873,16.69449ZM60.192,21.03913a4.32855,4.32855,0,0,0,4.23621-3.46064l3.56817.73145A7.95715,7.95715,0,0,1,57.66124,24.282l1.16152-3.46708A4.35434,4.35434,0,0,0,60.192,21.03913Zm.011-12.33924A7.97515,7.97515,0,0,1,68,15.10843l-3.56908.72595a4.31632,4.31632,0,0,0-5.60173-3.25573L57.6787,9.10789A7.92128,7.92128,0,0,1,60.203,8.69989Z"/></svg>