<svg id="Camada_1" data-name="Camada 1" xmlns="http://www.w3.org/2000/svg" viewBox="0 0 68 30"><defs><style>.cls-1{fill:#fff;}.cls-2{fill:#f59e1f;}.cls-3{fill:#11a4de;}.cls-4{fill:#c21f35;}</style></defs><path class="cls-1" d="M33.06865,3.256q-7.2177,0-14.43541.001a2.88106,2.88106,0,0,0-2.953,2.94721q-.00436,8.50179,0,17.00359a2.87962,2.87962,0,0,0,2.95536,2.94481q14.42065.00281,28.8413,0a2.8807,2.8807,0,0,0,2.953-2.94716q.00436-8.50183-.00055-17.00367a2.87584,2.87584,0,0,0-2.95488-2.94491Q40.2716,3.25357,33.06865,3.256Z"/><path class="cls-2" d="M33.06865,3.256q7.20294,0,14.40589.0008A2.87584,2.87584,0,0,1,50.42942,6.2017q.003,8.50184.00055,17.00367a2.8807,2.8807,0,0,1-2.953,2.94716q-14.42065.0029-28.8413,0a2.87962,2.87962,0,0,1-2.95536-2.94481q-.00452-8.50179,0-17.00359a2.88106,2.88106,0,0,1,2.953-2.94721Q25.85094,3.25286,33.06865,3.256Zm15.76712,9.25418h-.3523q-15.42774,0-30.85549-.00627c-.28361-.0002-.361.07038-.36012.35735.01027,3.41523.00612,6.83051.007,10.24578a1.3126,1.3126,0,0,0,1.44432,1.44765q14.33525.0013,28.67051,0a1.31256,1.31256,0,0,0,1.44558-1.44642q.00139-5.12289.00045-10.24579Zm-31.5472-4.783h31.5336c0-.60653.04267-1.19813-.01112-1.78081a1.29229,1.29229,0,0,0-1.45247-1.09186q-14.30169-.00057-28.60339-.00013c-.0787,0-.1577-.00235-.236.00343a1.25673,1.25673,0,0,0-1.21979,1.08493C17.24964,6.52644,17.28857,7.11775,17.28857,7.72712Z"/><path class="cls-1" d="M48.83577,12.51017v.35231q0,5.12289-.00045,10.24579a1.31256,1.31256,0,0,1-1.44558,1.44642q-14.33526.00127-28.67051,0A1.3126,1.3126,0,0,1,17.27491,23.107c-.00093-3.41527.00322-6.83055-.007-10.24578-.00086-.287.07651-.35755.36012-.35735q15.42774.0112,30.85549.00627ZM28.33423,18.96793a3.206,3.206,0,1,0-3.19463,3.22236A3.19824,3.19824,0,0,0,28.33423,18.96793Zm-5.52667-2.94117a3.139,3.139,0,0,0-3.66817.975,3.216,3.216,0,0,0,.11332,4.1,3.10114,3.10114,0,0,0,3.55142.83306,3.78585,3.78585,0,0,1,.00343-5.908Zm10.18694,3.7553c.55,0,1.1.00277,1.64991-.00083A.7969.7969,0,1,0,34.65,18.18781q-1.6499-.00484-3.29981-.00014a.797.797,0,1,0-.00557,1.59345C31.89454,19.7849,32.44453,19.782,32.9945,19.78206Zm5.95081,0c.55989,0,1.1198.00325,1.67965-.001a.79643.79643,0,1,0,.01421-1.59276q-1.66489-.00654-3.32983-.00036a.797.797,0,1,0,.01526,1.5934C37.86482,19.78458,38.40508,19.782,38.94531,19.782Zm5.96615.00006c.55982,0,1.11965.003,1.67944-.00094a.797.797,0,1,0-.00883-1.59346q-1.65-.00439-3.3.00011a.775.775,0,0,0-.81248.78539.78345.78345,0,0,0,.82132.8081C43.8311,19.78469,44.37129,19.78206,44.91146,19.78208Z"/><path class="cls-1" d="M17.28857,7.72712c0-.60937-.03893-1.20068.01078-1.78444a1.25673,1.25673,0,0,1,1.21979-1.08493c.07835-.00578.15735-.00343.236-.00343q14.30171-.00018,28.60339.00013a1.29229,1.29229,0,0,1,1.45247,1.09186c.05379.58268.01112,1.17428.01112,1.78081Z"/><path class="cls-3" d="M28.33423,18.96793a3.206,3.206,0,1,1-3.22555-3.19026A3.19956,3.19956,0,0,1,28.33423,18.96793Z"/><path class="cls-3" d="M22.80756,16.02676a3.78585,3.78585,0,0,0-.00343,5.908,3.10114,3.10114,0,0,1-3.55142-.83306,3.216,3.216,0,0,1-.11332-4.1A3.139,3.139,0,0,1,22.80756,16.02676Z"/><path class="cls-4" d="M32.9945,19.782c-.55,0-1.1.00287-1.6499-.00091a.797.797,0,1,1,.00557-1.59345q1.6499-.00436,3.29981.00014a.7969.7969,0,1,1-.00557,1.59342C34.09446,19.78483,33.54447,19.78206,32.9945,19.782Z"/><path class="cls-4" d="M38.94531,19.782c-.54023,0-1.08049.00255-1.62071-.00074a.797.797,0,1,1-.01526-1.5934q1.66491-.00511,3.32983.00036A.79643.79643,0,1,1,40.625,19.781C40.06511,19.78527,39.5052,19.782,38.94531,19.782Z"/><path class="cls-4" d="M44.91146,19.78207c-.54017,0-1.08036.00262-1.62051-.00079a.78345.78345,0,0,1-.82132-.8081.775.775,0,0,1,.81248-.78539q1.65-.00484,3.3-.00011a.797.797,0,1,1,.00883,1.59346C46.03111,19.78513,45.47128,19.78208,44.91146,19.78207Z"/></svg>