<svg id="Camada_1" data-name="Camada 1" xmlns="http://www.w3.org/2000/svg" viewBox="0 0 68 30"><defs><style>.cls-1{fill:#b3191e;}</style></defs><path id="path2997" class="cls-1" d="M28.405,29.7902,0,29.80033V29.732c0-.0376.0453-.28139.10067-.54175s.14146-.67449.1913-.92029.13505-.6635.18936-.92821.14455-.70561.20053-.97978.14367-.70733.19487-.96259.13667-.67295.19-.92821.14411-.69615.20185-.97977.14551-.71679.195-.96259.12827-.62483.17494-.84227.10619-.51137.13224-.65318.11036-.55951.18735-.92821.162-.7864.18888-.92821.11227-.55951.18972-.92821.16254-.7864.18908-.92821.1121-.55951.19013-.92821.16225-.77867.18715-.911.09312-.4727.15158-.75632.16909-.81734.24583-1.186.208-1.01072.2917-1.4267.1837-.911.22224-1.1001.10824-.52942.15489-.75632.13134-.63685.18822-.911.14942-.7228.20565-.997.14288-.6996.19255-.9454.13444-.65577.18839-.911.14673-.70389.20619-.997.15908-.74171.22136-.997.15035-.56466.19569-.68756a6.27514,6.27514,0,0,1,.27816-.592l.19573-.36859.17794-.233c.09786-.12816.27258-.33069.38827-.45006s.3109-.299.4338-.39914.30081-.23534.39535-.3004.28018-.17894.41254-.25308.318-.17124.41254-.21576S8.3496.872,8.49141.81718,8.90394.67054,9.093.61308,9.637.469,9.88174.42061s.63147-.113.85946-.14365l.41451-.05565L39.57786.21049,68,.19967V.268c0,.03758-.0456.28134-.10133.5417s-.14886.70544-.20695.98906-.14287.69357-.18842.911-.13175.63513-.19159.92821-.15189.74171-.20457.997-.138.673-.18951.92821-.13736.673-.19067.92821-.136.65749-.18368.89384-.13408.66178-.19193.9454-.15076.73225-.20648.997-.14061.67467-.18864.911l-.19207.9454c-.05761.28362-.15032.73226-.206.997s-.13873.66694-.1845.89383-.13189.65233-.19137.9454-.14619.71851-.19269.9454-.12955.62912-.18456.89383-.14906.72109-.209,1.01416-.1457.71077-.19062.92821-.129.6274-.18681.911-.14984.73226-.20446.997-.1403.6824-.19039.92821-.13714.67123-.19347.9454-.14832.7228-.20443.997-.14021.68413-.18688.911-.132.64459-.18958.92821-.15131.73056-.20824.9932l-.10351.47754-.12334.33035c-.06784.18169-.16981.42317-.2266.53662s-.17247.3136-.25707.4448-.2025.29929-.262.37355-.2387.266-.39816.42606l-.28993.291-.279.19828c-.15345.109-.31874.22-.36731.24644s-.23346.12085-.41086.2097-.428.2019-.55688.25125-.38414.13335-.56724.18667-.37931.10585-.436.1167-.25364.0516-.43759.09055-.55523.09712-.82507.12928l-.49063.05848-28.405.01013ZM18.299,22.44283h.73917l.02087-.05438a.55358.55358,0,0,0,.02087-.15625c0-.056.02436-.25975.05414-.4527s.09967-.637.1553-.98682.139-.87578.18514-1.16886.10255-.66822.12525-.83367a1.21,1.21,0,0,1,.0616-.3008.58652.58652,0,0,1,.10619.16245l.08589.16246.19058.192.19058.192.23458.09391.23459.09391.27959.03625.27958.03624.35489-.02177.3549-.02177.38423-.09944.38424-.09944.20627-.09415a4.214,4.214,0,0,0,.44692-.25089l.24064-.15675.22438-.22425a5.11644,5.11644,0,0,0,.38676-.4395,1.95361,1.95361,0,0,0,.16237-.23446.98162.98162,0,0,1,.09751-.16291,3.84535,3.84535,0,0,0,.2439-.48748c.08051-.18908.20634-.52943.27962-.75632l.13324-.41254.06887-.35735c.03787-.19654.0866-.52141.10828-.72194l.03942-.3646-.02277-.3094-.02276-.3094-.07174-.30941-.07173-.3094-.11612-.23165-.11613-.23166-.22431-.23777-.2243-.23778-.26535-.13715-.26535-.13716-.29222-.07-.29221-.07-.29222-.02145-.29221-.02145-.32552.03741-.32551.03741-.26568.06783-.26569.06784-.23081.10683a4.195,4.195,0,0,0-.41047.22176,2.07456,2.07456,0,0,0-.22653.16162,1.07542,1.07542,0,0,1-.13711.10571l-.09025.059.06311-.302c.03471-.16607.06373-.32128.06447-.34492l.00136-.043H19.40073l-.11052.69616c-.06078.38288-.15675.97462-.21327,1.315s-.14174.85086-.18938,1.13448-.13264.7864-.18887,1.11729-.14916.85688-.20652,1.16886-.14139.76835-.18674,1.01415-.13069.70991-.18966,1.03135-.15372.83195-.21057,1.13448-.14937.7821-.2056,1.06572-.11068.55048-.121.593l-.0188.07735H18.299Zm3.18219-3.97475-.287.01726-.18762-.03312-.18761-.03312-.19055-.087-.19054-.087-.13313-.12713-.13312-.12712-.07684-.17189a2.42694,2.42694,0,0,1-.12063-.35689l-.04379-.185.01755-.29629.01754-.2963.08858-.4641c.04872-.25526.1362-.73484.1944-1.06573s.14631-.81572.1958-1.0774l.09-.47578.19707-.164a3.19513,3.19513,0,0,1,.38155-.26865l.18447-.10465.24065-.07449.24065-.07449.3094-.01817.3094-.01816.25193.05369.25194.0537.17779.08188.1778.08188.14909.14989.14908.14989.08044.15873a2.31562,2.31562,0,0,1,.13807.37973l.05765.221-.01766.65319-.01766.65318-.08829.38608c-.04856.21235-.141.53722-.20542.72194l-.11713.33586-.14344.27188a4.78282,4.78282,0,0,1-.27036.449,1.92692,1.92692,0,0,1-.24723.2805c-.06618.05683-.177.14565-.24629.19737l-.126.094-.29176.09923-.29177.09924-.287.01726Zm7.13866.9451.37816.00432.37816-.03449c.208-.019.54833-.05847.75632-.08777s.56728-.09488.79844-.14574l.42028-.09247.02093-.15492c.01151-.08521.05871-.33887.10489-.5637l.084-.40877-.01853-.01852-.01852-.01853-.12849.06206c-.07067.03412-.29077.11553-.48912.1809l-.36063.11886-.3785.07332-.37849.07332-.60162.00116-.60162.00117-.20627-.06587a3.2286,3.2286,0,0,1-.3708-.14731l-.16453-.08144-.13579-.12268-.1358-.12268-.10595-.18518-.10595-.18518-.06642-.23228-.06643-.23228-.00047-.42984-.00048-.42984.059-.38345.059-.38346.51734-.02417.51733-.02417,1.91233.01228,1.91233.01228.05774-.24494c.03175-.13471.08031-.41317.10789-.6188l.05015-.37388.00106-.31449.00106-.3145-.05445-.23479-.05445-.23478-.09-.15547a2.16546,2.16546,0,0,0-.19389-.27538,1.533,1.533,0,0,0-.22664-.20661,3.34883,3.34883,0,0,0-.29468-.17811L31.3357,12.135l-.30034-.07238-.30033-.07238-.37-.03538-.37-.03539-.34378.02239-.34378.02239-.41254.07921-.41254.07922-.25784.10309a4.77851,4.77851,0,0,0-.48129.22977,3.37316,3.37316,0,0,0-.37816.252c-.08509.06894-.2324.203-.32737.29785a3.1079,3.1079,0,0,0-.31218.37877,4.99064,4.99064,0,0,0-.26138.44692c-.067.13236-.15439.318-.19411.41254s-.11191.28791-.16042.42972-.12475.41254-.16943.60162-.10591.50033-.13606.69167l-.05482.3479.00051.51157.0005.51157.05225.22346a4.21139,4.21139,0,0,0,.12211.41253,2.81247,2.81247,0,0,0,.15788.34379,1.92534,1.92534,0,0,0,.22976.30443,2.935,2.935,0,0,0,.31363.27769,2.46753,2.46753,0,0,0,.374.22l.20211.092.28182.06813c.155.03747.38891.08186.51982.09865s.40818.03247.61617.03485Zm.64755-4.84294c-.95176,0-1.73046-.00682-1.73046-.01515s.0406-.12822.09024-.26643.1368-.34392.1937-.45714l.10346-.20586.22743-.22618.22743-.22619.22346-.10685a2.57458,2.57458,0,0,1,.361-.1422,3.66991,3.66991,0,0,1,.48129-.05731l.34379-.022.264.03393.264.03393.19185.08783.19186.08784.10524.11347a1.2251,1.2251,0,0,1,.15329.20424l.048.09076.03173.20145.03173.20145-.0363.33519-.03629.33519Zm10.28491,4.84312.37838.0042.42951-.05091c.23624-.028.5507-.07439.69881-.1031s.3879-.0857.53286-.12665a1.87146,1.87146,0,0,0,.29144-.09838,1.6503,1.6503,0,0,0,.091-.34671c.03474-.17754.0785-.41561.09724-.52906a.93025.93025,0,0,0,.02153-.21976c-.0069-.00742-.03226.00217-.05635.0213a3.02257,3.02257,0,0,1-.37484.15774l-.331.123-.47141.09133-.47139.09133-.4008-.01368-.4008-.01367-.22765-.07895-.22765-.07895-.17591-.15389-.17592-.15388-.11669-.21253-.11669-.21253-.05557-.28431-.05558-.28432.00035-.36887.00034-.36887.06754-.44691.06754-.44692.07146-.24065c.0393-.13235.08377-.287.09882-.34378a3.7165,3.7165,0,0,1,.14011-.361c.062-.14181.17262-.361.24581-.487l.13307-.22922.16344-.16934.16344-.16934.17307-.10735.17308-.10735.22227-.06846a4.14683,4.14683,0,0,1,.48011-.10864l.25784-.04018.37816.019.37815.019.44692.08946.44692.08945.18177.0678c.1.03729.18614.06779.19148.06779a2.20776,2.20776,0,0,0,.05328-.28362c.024-.156.06663-.41263.0948-.57031a1.43758,1.43758,0,0,0,.03614-.30177,1.92012,1.92012,0,0,0-.29852-.04741c-.1559-.01778-.57961-.04934-.94158-.07015l-.65812-.03783-.46411.03562-.4641.03561-.34378.07225-.34378.07224-.2214.08855a3.21229,3.21229,0,0,0-.39635.19531c-.09622.05872-.2187.1377-.27218.17552a4.72664,4.72664,0,0,0-.36056.32787l-.26332.25912-.147.21533a5.50505,5.50505,0,0,0-.31077.54877l-.16378.33344-.12554.361c-.069.19853-.16544.52341-.21422.72194l-.08868.361-.0322.32659-.03218.3266.00034.42972.00035.42973.03246.25.03247.25.103.25716.103.25715.11893.18592.11893.18592.18912.18612.18912.18613.2.10572.2.10573.26283.073a4.6565,4.6565,0,0,0,.46411.1024,5.6819,5.6819,0,0,0,.57964.03359Zm5.655-.0127.46411-.01329.29221-.07479.29221-.0748.18908-.08939a3.58372,3.58372,0,0,0,.37816-.21567,2.914,2.914,0,0,0,.35771-.29342,3.92931,3.92931,0,0,0,.30563-.34854.90162.90162,0,0,1,.14709-.17131,2.918,2.918,0,0,1-.03853.35329,5.17062,5.17062,0,0,0-.04929.55806l-.00065.21486H48.8069l.01929-.48988.01929-.48989.09-.636c.04952-.3498.1295-.86805.17773-1.15167s.13206-.76319.1863-1.06572.14016-.77437.19094-1.04853l.09233-.49849.00309-.43058.00309-.43057-.09736-.199-.09736-.199-.132-.12675-.132-.12674-.21675-.10984-.21676-.10983-.32305-.07185-.323-.07186-.44478-.03385-.44477-.03384-.57293.03544c-.31511.0195-.75857.058-.98547.08555l-.41254.0501-.28115.00107-.28116.00106-.04091.19768c-.0225.10872-.085.367-.13894.574a3.04311,3.04311,0,0,0-.08692.38744,2.27007,2.27007,0,0,0,.33415-.07584c.17768-.04783.5551-.12647.83872-.17477l.51567-.08781.4641-.01913.46411-.01913.29894.0524.29895.0524.19954.09849.19954.09848.11172.16653.11173.16653-.00158.26254-.00158.26255-.05923.28811-.05922.28811-1.237.00446-1.237.00447-.40485.111a4.64048,4.64048,0,0,0-.54791.18012.84574.84574,0,0,1-.17491.06913,1.964,1.964,0,0,0-.29435.16322l-.26251.16323-.20675.20634a3.20586,3.20586,0,0,0-.32283.37823,3.25018,3.25018,0,0,0-.23051.43889l-.11443.267-.05252.30025-.05252.30024v.63l.05017.26224.05018.26225.09309.171a2.14419,2.14419,0,0,0,.2088.30622l.11571.13518.20562.12491.20562.12491.23536.0666c.12945.03663.32647.081.43783.09855l.20247.03194.46411-.01329Zm.42973-.96129-.275.01434-.18215-.04639a1.93578,1.93578,0,0,1-.33782-.12646l-.15566-.08006-.085-.101a1.60936,1.60936,0,0,1-.15863-.24249l-.07367-.14152-.01444-.33047-.01444-.33048.05827-.20046a3.31226,3.31226,0,0,1,.16711-.42515l.10883-.22468.2084-.207.20841-.207.22132-.10656.22132-.10657.275-.06532.275-.06533h1.71891l.05438.02248.05437.02248-.04576.26973c-.02517.14836-.0852.4167-.1334.59633s-.1333.44368-.1891.58678-.10146.26963-.10146.28116a1.84557,1.84557,0,0,1-.12555.23172l-.12554.21076-.20616.20424a1.40176,1.40176,0,0,1-.23389.20425.6421.6421,0,0,0-.15445.086l-.1267.086-.27876.08813L45.912,18.425l-.275.01434ZM56.8271,19.413l.32659.00412.3094-.05022c.17017-.02762.38676-.07211.4813-.09887a2.53707,2.53707,0,0,0,.37816-.15433l.20627-.10568.17744-.15619.17745-.15618.18689-.24924a2.899,2.899,0,0,0,.20684-.3008l.02-.05157-.01735.1719c-.00955.09454-.03095.24924-.04757.34378s-.04043.27631-.05293.40394l-.02273.23205h1.34876v-.4641l.10274-.87665c.05651-.48215.14007-1.12416.1857-1.42669s.116-.73569.15649-.96259.11208-.63685.15918-.911.13218-.75374.18907-1.06572.14793-.807.20231-1.1001.13893-.74945.18785-1.01416.13659-.72882.1948-1.03134.14325-.728.189-.9454.08306-.40695.083-.42114V9.001H60.68415l-.02173.21486c-.012.11818-.06827.5088-.12517.86805s-.14963.93165-.20608,1.272-.11089.67038-.121.73341l-.0183.1146-.05807-.02469c-.03193-.01358-.205-.06159-.38465-.1067l-.3266-.082-.44691-.03481-.44692-.0348-.37816.03523-.37816.03524-.34378.0869-.34378.0869-.32659.15929-.3266.15929-.24064.17816-.24065.17817-.20783.22282a5.0189,5.0189,0,0,0-.367.45046l-.15913.22764-.18686.38884c-.10277.21386-.22784.49714-.27793.62949s-.13843.42576-.19631.652l-.10524.41135-.05185.53405-.05184.53406.03893.42973.03893.42972.046.1547c.02531.08509.07869.23668.11861.33688l.07259.18218.13234.17914.13235.17915.15111.12377.15111.12377.20627.10242a2.83393,2.83393,0,0,0,.42291.16178,3.853,3.853,0,0,0,.42973.08709c.1172.01526.36.02959.53968.03186Zm.58617-.97537-.25958.01379-.1752-.03154a1.90716,1.90716,0,0,1-.34266-.10332l-.16745-.07178-.14091-.11546-.14091-.11546-.10471-.20055-.10472-.20056-.04771-.22346-.04772-.22346.004-.44691.004-.44692.05542-.39535.05541-.39535.08613-.275a2.79461,2.79461,0,0,0,.08665-.31714,1.662,1.662,0,0,1,.10394-.275c.05688-.1281.15192-.32573.21119-.43918a3.58957,3.58957,0,0,1,.2462-.393,3.33306,3.33306,0,0,1,.30141-.34379,2.30076,2.30076,0,0,1,.31687-.25174l.15389-.0947.27031-.09354.27031-.09353.56724-.00035H59.182l.32659.09061c.17963.04983.37035.10763.42383.12843l.09723.03782-.019.09436c-.01044.0519-.0513.28-.09079.50691s-.11732.66006-.17294.96258-.14108.7589-.18991,1.01416-.11956.58013-.15717.72194-.09068.33823-.11793.43649a2.86023,2.86023,0,0,1-.14417.37816,3.00008,3.00008,0,0,1-.2024.35421,1.97506,1.97506,0,0,1-.22277.26192,2.91264,2.91264,0,0,1-.30409.23288l-.18908.12566-.27328.08672-.27328.08673-.25958.01378ZM6.8171,19.24566h.8353l.05993-.36956c.033-.20326.09734-.59389.14306-.86805s.13081-.78468.1891-1.13448.14565-.86805.19415-1.15167.12557-.72358.17126-.97769a4.2568,4.2568,0,0,1,.10234-.4813l.01926-.01927h4.49208l.02494.02493.02494.02493-.039.19853c-.02142.10919-.08478.446-.1408.74858s-.1502.813-.20929,1.13448-.14452.7778-.18985,1.01415-.13709.7314-.20388,1.1001-.12131.68971-.12113.71335l.00034.043h1.67747l.03711-.21486c.02042-.11818.05326-.33089.073-.4727s.06728-.44348.10568-.67037.11512-.67554.17049-.997.14805-.87063.206-1.22043.1438-.86031.19089-1.13448.131-.73827.18645-1.03134.14784-.78812.20529-1.1001.14351-.78382.19125-1.04854.13479-.74428.19344-1.06572.13272-.69659.16458-.83367l.05795-.24924H13.931l-.0231.1633c-.0127.08981-.05372.3412-.09116.55864s-.10554.6042-.15134.85946-.12949.74256-.186,1.08291-.12849.79087-.16,1.00118l-.05728.38238-1.24663.02523-1.24663.02523-1.04418-.02478c-.57429-.01362-1.04736-.02748-1.05125-.03079a2.91712,2.91712,0,0,1,.04347-.29689c.0278-.16.08038-.43783.11686-.61746s.10563-.53544.15367-.7907.10246-.57239.12092-.70475.05718-.3528.086-.48989.08356-.42583.12162-.64167.07859-.41694.09009-.44691L9.427,9.20724H7.74226l-.054.30081c-.02967.16544-.06924.40136-.08792.52426s-.08143.5174-.13944.87665-.14362.893-.19027,1.186l-.18879,1.186c-.05718.35925-.15153.91618-.20966,1.23761s-.1423.77781-.187,1.01416-.13.685-.18945.997-.1462.75288-.19275.97977-.098.48989-.11439.58443-.06957.36721-.11825.60594-.08852.45917-.08852.48989v.05584H6.8171Zm9.247,0h.73947l.02086-.05438a.644.644,0,0,0,.02087-.17434c0-.066.0465-.40892.10333-.7621s.15074-.92834.20868-1.27814.1435-.86031.19014-1.13448.12958-.73053.18432-1.01415.13876-.72452.18673-.97978.14228-.74089.2096-1.07918.13079-.62867.141-.64527l.01866-.03019-.74779.00927-.74779.00927-.06228.44692c-.03425.2458-.10914.73312-.16642,1.08291s-.14391.88352-.19253,1.186-.13338.78984-.18839,1.08291-.13929.74171-.18731.997-.13418.70389-.19147.997-.13416.67983-.17083.85946-.07605.3614-.08752.40394l-.02084.07735Zm17.29476,0h.734l.02205-.31057c.01212-.17081.05366-.515.0923-.76491s.11776-.74828.17582-1.10753.166-.95722.23978-1.32881.15727-.741.18545-.82081a.94282.94282,0,0,0,.05122-.19227,1.82168,1.82168,0,0,1,.12263-.31368,4.271,4.271,0,0,1,.27933-.4989l.15669-.23234.20975-.19419.20975-.19419.25865-.12353.25865-.12352.39535.00206.39535.00206.19437.05809c.1069.032.20359.05809.21486.05809s.02049-.03655.02049-.08122.03868-.27112.08595-.50321.08594-.43179.08594-.44375A.91526.91526,0,0,0,37.498,12.035a3.14276,3.14276,0,0,0-.42113-.097l-.17189-.02123-.22346.03953a2.88231,2.88231,0,0,0-.4061.10664,2.30969,2.30969,0,0,0-.36859.18606,2.65509,2.65509,0,0,0-.35351.28329,4.04125,4.04125,0,0,0-.34449.405c-.09731.13235-.19907.27158-.22614.3094l-.04922.06876.02989-.13752c.01643-.07563.06222-.32315.10174-.55s.08008-.43961.09013-.4727l.01829-.06016h-1.311v.08287c0,.04558-.03869.32017-.086.61021s-.12526.77487-.17327,1.0774-.13324.82851-.18938,1.16885-.14138.82766-.18942,1.08292-.13336.70389-.18959.997-.14958.77265-.20745,1.06573-.12712.63918-.15388.76913-.04865.24984-.04865.26643v.03016h.734Zm17.42352,0h.75049v-.45934l.08648-.56962c.04757-.3133.126-.80941.17439-1.10248s.1086-.66436.1339-.82508.09237-.5088.149-.77351.12742-.55091.15726-.636a1.08737,1.08737,0,0,0,.05476-.19838,2.31921,2.31921,0,0,1,.14216-.34327l.14167-.29959.18688-.24831.18689-.24832.20454-.15376a2.97285,2.97285,0,0,1,.402-.24938l.19745-.09563.42972.003.42973.003.16916.05433.16917.05432.02851-.01762.02851-.01762.00144-.1097a4.48509,4.48509,0,0,1,.08177-.49889l.08035-.3892-.09037-.03537c-.0497-.01946-.16772-.05974-.26226-.08951l-.17189-.05413-.3094.00079-.30941.00079-.25215.08872-.25214.08871-.18933.11416-.18933.11416-.24615.25784-.24614.25783-.13225.2a.95966.95966,0,0,1-.14231.18908c-.00554-.006.034-.23526.08785-.50942s.09858-.53329.0994-.57584l.00148-.07734h-1.272v.0219c0,.01205-.03171.2325-.07046.48989s-.11657.75418-.17291,1.104-.14881.91446-.20546,1.2548-.14206.82766-.18979,1.08292-.13251.70389-.18839.997-.1477.76491-.204,1.04853-.131.65878-.16586.83368l-.06341.318h.75049Zm-33.26423-8.389.20873.00075.16592-.05653.16592-.05654.14685-.14895.14684-.149.07735-.19845.07735-.19846.00277-.29221.00276-.29221L18.44388,9.351l-.06875-.1141-.11971-.07412-.1197-.07411h-.25846l-.25845,0-.176.07878-.176.07878-.10214.10944-.10214.10945-.08021.18908-.08021.18908-.01516.29452-.01516.29453.07467.14638.07468.14638.14409.06541.14409.06542.20874.00076Z"/></svg>