<svg id="Camada_1" data-name="Camada 1" xmlns="http://www.w3.org/2000/svg" xmlns:xlink="http://www.w3.org/1999/xlink" viewBox="0 0 68 30"><defs><style>.cls-1{fill:#fff;}.cls-2{fill:url(#Gradiente_sem_nome_3);}.cls-3{fill:url(#Gradiente_sem_nome_3-2);}.cls-4{fill:url(#Gradiente_sem_nome_3-3);}.cls-5{fill:url(#Gradiente_sem_nome_4);}.cls-6{fill:url(#Gradiente_sem_nome_5);}</style><linearGradient id="Gradiente_sem_nome_3" x1="-27.52554" y1="4.67698" x2="-22.30431" y2="4.67698" gradientTransform="matrix(2.04921, 0, 0, -2.04921, 97.68858, 26.25075)" gradientUnits="userSpaceOnUse"><stop offset="0" stop-color="#047a40"/><stop offset="0.2285" stop-color="#06883f"/><stop offset="0.7433" stop-color="#41a837"/><stop offset="1" stop-color="#60b235"/></linearGradient><linearGradient id="Gradiente_sem_nome_3-2" x1="-27.5257" y1="5.48449" x2="-22.30881" y2="5.48449" xlink:href="#Gradiente_sem_nome_3"/><linearGradient id="Gradiente_sem_nome_3-3" x1="-27.52567" y1="6.37334" x2="-22.30423" y2="6.37334" xlink:href="#Gradiente_sem_nome_3"/><linearGradient id="Gradiente_sem_nome_4" x1="-39.21468" y1="5.4903" x2="-33.91262" y2="5.4903" gradientTransform="matrix(2.04921, 0, 0, -2.04921, 97.68858, 26.25075)" gradientUnits="userSpaceOnUse"><stop offset="0" stop-color="#28306a"/><stop offset="0.4751" stop-color="#044f94"/><stop offset="0.8261" stop-color="#0a67b1"/><stop offset="1" stop-color="#0f6fb7"/></linearGradient><linearGradient id="Gradiente_sem_nome_5" x1="-33.39795" y1="5.47868" x2="-28.24842" y2="5.47868" gradientTransform="matrix(2.04921, 0, 0, -2.04921, 97.68858, 26.25075)" gradientUnits="userSpaceOnUse"><stop offset="0" stop-color="#6c2c30"/><stop offset="0.1735" stop-color="#892730"/><stop offset="0.5731" stop-color="#be1a34"/><stop offset="0.8585" stop-color="#dc0937"/><stop offset="1" stop-color="#e5083a"/></linearGradient></defs><g id="g6321"><g id="g6323"><path id="path6325" class="cls-1" d="M54.1204,23.95238A6.05618,6.05618,0,0,1,48.07279,30H15.168V6.04762A6.05619,6.05619,0,0,1,21.21564,0H54.1204V23.95238Z"/><g id="g6327"><path id="path6338" class="cls-2" d="M43.40612,17.80952h2.5c.07143,0,.23809-.0238.30952-.0238a1.11538,1.11538,0,0,0,.88095-1.11905,1.15562,1.15562,0,0,0-.88095-1.119,1.25778,1.25778,0,0,0-.30952-.02381h-2.5v2.28571Z"/><path id="path6349" class="cls-3" d="M45.6204,2.02381a4.3338,4.3338,0,0,0-4.33333,4.33333v4.5h6.11905a2.44826,2.44826,0,0,1,.42857.02381c1.38095.07143,2.40476.78572,2.40476,2.02381A2.02468,2.02468,0,0,1,48.26326,14.881v.04762c1.40476.09524,2.47619.88095,2.47619,2.09524,0,1.30952-1.19047,2.16667-2.7619,2.16667H41.26326V28H47.6204a4.3338,4.3338,0,0,0,4.33334-4.33333V2.02381Z"/><path id="path6360" class="cls-4" d="M46.78707,13.19048a1.01291,1.01291,0,0,0-.88095-1.02381c-.04762,0-.16667-.02381-.2381-.02381h-2.2619V14.2381H45.668a.66352.66352,0,0,0,.2381-.02381A1.01291,1.01291,0,0,0,46.78707,13.19048Z"/></g><path id="path6371" class="cls-5" d="M21.668,2.02381a4.3338,4.3338,0,0,0-4.33333,4.33333V17.04762a8.56907,8.56907,0,0,0,3.73809.97619A2.07348,2.07348,0,0,0,23.38231,15.881V10.83333h3.71428v5.02381c0,1.95238-1.21428,3.54762-5.33333,3.54762a18.27776,18.27776,0,0,1-4.45238-.54762v9.119H23.668a4.33381,4.33381,0,0,0,4.33334-4.33333V2.02381Z"/><path id="path6384" class="cls-6" d="M33.64421,2.02381a4.3338,4.3338,0,0,0-4.33333,4.33333v5.66667c1.09524-.92857,3-1.52381,6.07143-1.38095a19.32016,19.32016,0,0,1,3.40476.52381V13a8.24213,8.24213,0,0,0-3.28571-.95238c-2.33334-.16667-3.7381.97619-3.7381,2.97619,0,2.02381,1.40476,3.16667,3.7381,2.97619a8.64763,8.64763,0,0,0,3.28571-.95238V18.881a18.86017,18.86017,0,0,1-3.40476.52381c-3.07143.14286-4.97619-.45238-6.07143-1.38095v10H35.668a4.33381,4.33381,0,0,0,4.33334-4.33333V2.02381Z"/></g></g></svg>