<svg id="Camada_1" data-name="Camada 1" xmlns="http://www.w3.org/2000/svg" viewBox="0 0 68 30"><defs><style>.cls-1{fill:#010101;}.cls-2{fill:#eb5d1c;}.cls-3{fill:#e41522;}.cls-4{fill:#f59e1f;}</style></defs><path class="cls-1" d="M21.68686,29.93428v-1.991A1.1677,1.1677,0,0,0,20.42655,26.683a1.30541,1.30541,0,0,0-1.12887.56443,1.16482,1.16482,0,0,0-1.06314-.56443,1.06927,1.06927,0,0,0-.92784.46392v-.3982h-.69587v3.18557h.69587v-1.759c0-.56443.29768-.83119.7616-.83119s.69588.29768.69588.83119v1.759h.69587v-1.759a.73525.73525,0,0,1,.7616-.83119c.46392,0,.69588.29768.69588.83119v1.759ZM32.009,26.74871H30.88015v-.96263h-.69587v.96263h-.63016v.63015h.63016V28.8402c0,.73067.29768,1.1598,1.09407,1.1598a1.87089,1.87089,0,0,0,.86211-.232l-.201-.59923a1.11308,1.11308,0,0,1-.59923.16624c-.33247,0-.46391-.201-.46391-.52964V27.37886h1.12886v-.63015Zm5.90722-.06959a.9432.9432,0,0,0-.83119.46392v-.3982h-.69587v3.18557h.69587V28.1366c0-.52964.232-.83119.66495-.83119a2.13625,2.13625,0,0,1,.433.06572l.201-.665a2.7589,2.7589,0,0,0-.46778-.02706Zm-8.92655.33248a2.283,2.283,0,0,0-1.2951-.33248c-.79639,0-1.326.3982-1.326,1.02835,0,.52964.39819.83119,1.09407.92784l.33247.03479c.36341.06572.56444.16624.56444.33248,0,.232-.26676.39819-.73067.39819a1.83456,1.83456,0,0,1-1.06315-.33247l-.33247.52964a2.33253,2.33253,0,0,0,1.36082.39819c.92784,0,1.46134-.433,1.46134-1.02835,0-.56443-.433-.86211-1.09407-.96263l-.33247-.03479c-.29768-.0348-.52964-.10052-.52964-.29768,0-.232.232-.36341.59922-.36341a2.39445,2.39445,0,0,1,.99743.26676l.29381-.56443Zm18.51418-.33248a.9432.9432,0,0,0-.83119.46392v-.3982H45.9768v3.18557h.69588V28.1366c0-.52964.232-.83119.66495-.83119a2.13635,2.13635,0,0,1,.433.06572l.201-.65721a2.1199,2.1199,0,0,0-.46778-.0348Zm-8.89176,1.66237A1.59422,1.59422,0,0,0,40.30541,30a1.667,1.667,0,0,0,1.12887-.36341l-.33247-.56443a1.32937,1.32937,0,0,1-.83119.29768.942.942,0,0,1-.96263-1.02835.97623.97623,0,0,1,.96263-1.02835,1.36083,1.36083,0,0,1,.83119.29769l.33247-.56444a1.64754,1.64754,0,0,0-1.12887-.3634,1.59215,1.59215,0,0,0-1.6933,1.6585Zm6.43686,0V26.74871h-.69588v.39819a1.20218,1.20218,0,0,0-.99742-.46391,1.65986,1.65986,0,0,0,0,3.317,1.12521,1.12521,0,0,0,.99742-.46392v.3982H45.049V28.34149Zm-2.55541,0a.96473.96473,0,1,1,1.92525,0,.96473.96473,0,1,1-1.92525,0Zm-8.32732-1.66237a1.65932,1.65932,0,0,0,.03479,3.317,2.02244,2.02244,0,0,0,1.2951-.433l-.33247-.49871a1.58042,1.58042,0,0,1-.92784.33247.897.897,0,0,1-.96262-.76159h2.35438v-.26676a1.469,1.469,0,0,0-1.46134-1.68943Zm0,.59923a.77532.77532,0,0,1,.79639.7616H33.30412a.83884.83884,0,0,1,.86212-.7616Zm17.28865,1.06314V25.4884H50.759v1.65851a1.20216,1.20216,0,0,0-.99742-.46392,1.65986,1.65986,0,0,0,0,3.317,1.12522,1.12522,0,0,0,.99742-.46392v.3982h.69587V28.34149Zm-2.55541,0a.96473.96473,0,1,1,1.92526,0,.96473.96473,0,1,1-1.92526,0Zm-23.29639,0V26.74871h-.69587v.39819a1.2022,1.2022,0,0,0-.99743-.46391,1.65986,1.65986,0,0,0,0,3.317,1.12523,1.12523,0,0,0,.99743-.46392v.3982h.69587V28.34149Zm-2.58634,0a.96473.96473,0,1,1,1.92526,0,.96473.96473,0,1,1-1.92526,0Z"/><rect id="rect19" class="cls-2" x="28.75773" y="2.55541" width="10.45361" height="18.78093"/><path class="cls-3" d="M29.45361,11.94588A11.9796,11.9796,0,0,1,34,2.55541a11.94191,11.94191,0,1,0-7.36856,21.33634A11.88184,11.88184,0,0,0,34,21.33634,11.92178,11.92178,0,0,1,29.45361,11.94588Z"/><path id="path22" class="cls-4" d="M53.31443,11.94588A11.93442,11.93442,0,0,1,34,21.33634,11.97109,11.97109,0,0,0,34,2.55541a11.93441,11.93441,0,0,1,19.31443,9.39047Z"/></svg>