<svg id="Camada_1" data-name="Camada 1" xmlns="http://www.w3.org/2000/svg" viewBox="0 0 68 30"><defs><style>.cls-1{fill:#0958a0;}.cls-2{fill:#f7a521;}</style></defs><g id="g4158"><polygon id="polygon9" class="cls-1" points="29.467 25.686 23.958 25.686 27.404 4.382 32.912 4.382 29.467 25.686"/><path id="path11" class="cls-1" d="M49.43529,4.90329a13.5751,13.5751,0,0,0-4.94067-.907c-5.43979,0-9.27045,2.90078-9.29395,7.048-.04518,3.05983,2.74264,4.75933,4.82771,5.77958,2.13116,1.04253,2.8556,1.723,2.8556,2.65227-.02169,1.4272-1.72209,2.08507-3.308,2.08507a10.9635,10.9635,0,0,1-5.1684-1.1332l-.72534-.34039-.77083,4.78223a16.76481,16.76481,0,0,0,6.14345,1.1338c5.77987,0,9.54276-2.8559,9.58734-7.27545.022-2.42515-1.45009-4.28339-4.62378-5.80186-1.92663-.97476-3.10652-1.632-3.10652-2.62938.02259-.90668.998-1.83536,3.17279-1.83536a9.35916,9.35916,0,0,1,4.10326.81572l.49823.22622.74914-4.60029Z"/><path id="path13" class="cls-1" d="M56.75653,18.13905c.45364-1.22387,2.19923-5.96061,2.19923-5.96061-.0229.04548.45274-1.24646.72474-2.03958l.385,1.83565s1.04313,5.09941,1.26965,6.16454ZM63.556,4.38248h-4.2608a2.71812,2.71812,0,0,0-2.8791,1.76757L48.234,25.6859h5.77988s.95156-2.62938,1.15609-3.19568h7.07243c.15814.74794.65727,3.19568.65727,3.19568H68l-4.444-21.30342h0Z"/><path id="path15" class="cls-1" d="M19.35722,4.38248l-5.39461,14.5271-.58949-2.94627A16.30584,16.30584,0,0,0,5.75729,7.03354l4.94126,18.63007h5.82506L25.182,4.38247H19.35723Z"/><path id="path17" class="cls-2" d="M8.95327,4.38248H.09067L0,4.81292c6.91338,1.76788,11.492,6.02929,13.37312,11.1513l-1.92663-9.791A2.27931,2.27931,0,0,0,8.95327,4.38248Z"/></g></svg>